<svg version="1.1" id="Layer_1" xmlns="http://www.w3.org/2000/svg" xmlns:xlink="http://www.w3.org/1999/xlink" x="0px" y="0px"
	 width="792px" height="420px" viewBox="0 96 792 420" enable-background="new 0 96 792 420" xml:space="preserve">
<path fill="#8DA3FF" d="M105.522,156.004H59.557c-3.086,0-5.6,2.514-5.6,5.601v80.125c0,3.091,2.514,5.603,5.6,5.603h56.304
	c3.088,0,5.601-2.512,5.601-5.603v-68.408L105.522,156.004z M106.845,164.385l6.986,7.593h-6.986V164.385z M116.757,241.73
	c0,0.492-0.403,0.896-0.899,0.896H59.557c-0.495,0-0.896-0.404-0.896-0.896v-80.126c0-0.494,0.401-0.896,0.896-0.896h42.582v13.62
	c0,1.298,1.057,2.35,2.354,2.35h12.265L116.757,241.73L116.757,241.73z"/>
<g>
	<g>
		<path fill="#8DA3FF" d="M698.698,153.636c20.962,0,38.687,8.655,39.286,19.015c-0.6,10.359-18.324,19.017-39.286,19.017
			c-20.963,0-38.687-8.655-39.287-19.017C660.013,162.29,677.735,153.636,698.698,153.636z"/>
		<path fill="#8DA3FF" d="M738.043,229.238c0,10.598-18.016,19.551-39.345,19.551c-21.328,0-39.345-8.953-39.345-19.551v-9.35
			c6.735,8.088,21.633,13.589,39.345,13.589c17.71,0,32.606-5.502,39.345-13.589V229.238L738.043,229.238z"/>
		<path fill="#8DA3FF" d="M738.043,210.064c0,10.598-18.016,19.552-39.345,19.552c-21.328,0-39.345-8.954-39.345-19.552v-9.737
			c6.735,8.086,21.633,13.585,39.345,13.585c17.71,0,32.606-5.502,39.345-13.585V210.064L738.043,210.064z"/>
		<path fill="#8DA3FF" d="M738.043,190.498c0,10.599-18.016,19.551-39.345,19.551c-21.328,0-39.345-8.952-39.345-19.551v-8.557
			c6.735,8.089,21.633,13.585,39.345,13.585c17.71,0,32.606-5.499,39.345-13.585V190.498L738.043,190.498z"/>
	</g>
</g>
<g>
	<path fill="#233670" d="M716.299,145.112c-1.816-3.114-4.283-5.579-7.396-7.396c-3.114-1.817-6.515-2.726-10.202-2.726
		c-3.688,0-7.09,0.908-10.204,2.726c-3.113,1.816-5.579,4.282-7.396,7.396c-1.816,3.114-2.726,6.516-2.726,10.203
		s0.908,7.088,2.726,10.202c1.817,3.113,4.282,5.579,7.396,7.397c3.114,1.816,6.515,2.726,10.204,2.726
		c3.687,0,7.09-0.909,10.202-2.726c3.111-1.817,5.579-4.283,7.396-7.397c1.818-3.113,2.728-6.516,2.728-10.202
		C719.024,151.628,718.116,148.226,716.299,145.112z M701.241,166.009c-0.176-0.212-0.238-0.389-0.186-0.529
		c-0.019,0.089-0.08,0.168-0.186,0.238c-0.089-0.106-0.246-0.238-0.478-0.396c-0.229-0.159-0.388-0.291-0.476-0.396
		c-0.035-0.054-0.084-0.129-0.146-0.226c-0.062-0.097-0.141-0.225-0.237-0.385c-0.097-0.158-0.167-0.295-0.212-0.41
		c-0.044-0.114-0.047-0.181-0.014-0.198c-0.336,0.143-0.818,0.044-1.454-0.291c-0.124-0.069-0.31-0.256-0.557-0.556
		c-0.246-0.301-0.503-0.432-0.769-0.396c-0.088,0.017-0.207,0.048-0.357,0.093c-0.148,0.044-0.276,0.066-0.383,0.066
		s-0.247-0.035-0.425-0.107c-0.141-0.052-0.331-0.154-0.569-0.303c-0.238-0.15-0.399-0.244-0.489-0.277
		c-0.229-0.124-0.345-0.186-0.345-0.186l-0.422-0.211c-0.105-0.054-0.217-0.137-0.331-0.251c-0.116-0.115-0.189-0.234-0.225-0.357
		c-0.034-0.106-0.079-0.318-0.132-0.637c-0.054-0.317-0.124-0.547-0.213-0.688c-0.104-0.176-0.256-0.353-0.448-0.528
		c-0.195-0.178-0.369-0.265-0.53-0.265c0.142,0,0.142-0.119,0-0.358c-0.14-0.238-0.265-0.41-0.369-0.515
		c-0.035-0.036-0.141-0.15-0.318-0.345c-0.177-0.192-0.324-0.361-0.449-0.503c-0.124-0.141-0.229-0.304-0.316-0.49
		c-0.09-0.186-0.105-0.34-0.055-0.463c0.018-0.018,0-0.044-0.053-0.079c-0.054-0.034-0.119-0.07-0.199-0.106
		c-0.078-0.035-0.154-0.066-0.225-0.093c-0.071-0.026-0.125-0.039-0.161-0.039c0.036,0.07,0.075,0.198,0.122,0.385
		c0.043,0.186,0.093,0.322,0.145,0.41c0.035,0.071,0.186,0.326,0.449,0.767c0.461,0.74,0.67,1.288,0.635,1.642
		c-0.104,0.035-0.176,0.017-0.21-0.054c-0.035-0.07-0.063-0.168-0.08-0.29c-0.021-0.125-0.035-0.213-0.054-0.265
		c-0.053-0.106-0.189-0.222-0.411-0.346c-0.22-0.122-0.356-0.246-0.41-0.369c0.021,0,0.04-0.009,0.066-0.028
		c0.027-0.018,0.05-0.025,0.066-0.025c0.019-0.158-0.074-0.36-0.278-0.608c-0.202-0.246-0.286-0.423-0.25-0.528
		c-0.143-0.106-0.267-0.314-0.371-0.622c-0.105-0.31-0.194-0.508-0.265-0.597c-0.071-0.106-0.159-0.198-0.265-0.278
		c-0.106-0.079-0.238-0.167-0.396-0.265c-0.159-0.097-0.267-0.161-0.318-0.197c-0.036-0.018-0.105-0.097-0.211-0.238
		c-0.584-0.706-0.76-1.085-0.53-1.138c-0.229,0.053-0.42-0.119-0.569-0.518c-0.15-0.396-0.197-0.7-0.145-0.912l-0.055-0.026
		c0.019-0.07,0.026-0.277,0.026-0.622c0-0.345,0.021-0.657,0.065-0.94c0.045-0.281,0.13-0.423,0.251-0.423
		c-0.122,0.019-0.216-0.093-0.276-0.33c-0.063-0.238-0.067-0.401-0.016-0.49c0.019-0.053,0.098-0.018,0.238,0.106
		c0.142,0.122,0.223,0.201,0.237,0.238c0.229-0.125,0.32-0.283,0.267-0.478c-0.036-0.069-0.222-0.255-0.558-0.556
		c-0.759-0.494-1.146-0.732-1.162-0.715c0.104-0.194,0.078-0.361-0.081-0.504c-0.176,0.107-0.276,0.133-0.304,0.081
		c-0.025-0.054-0.05-0.15-0.065-0.292c-0.02-0.142-0.062-0.222-0.133-0.237c-0.088-0.019-0.193-0.09-0.316-0.212
		c1.567-2.506,3.642-4.465,6.219-5.877c0.104-0.017,0.299-0.026,0.583-0.026c0.141,0.019,0.271,0.063,0.396,0.132
		c0.125,0.07,0.252,0.169,0.385,0.291c0.132,0.124,0.233,0.212,0.305,0.264c0.036-0.105-0.008-0.264-0.133-0.476
		c0.036-0.106,0.229-0.211,0.582-0.317c0.406-0.053,0.672-0.044,0.796,0.026c-0.104-0.158-0.282-0.379-0.528-0.66l-0.133,0.131
		c-0.143-0.123-0.512-0.062-1.112,0.187c-0.033,0.018-0.122,0.066-0.264,0.145c-0.142,0.08-0.256,0.137-0.344,0.173
		c-0.105,0.035-0.211,0.044-0.317,0.027c0.846-0.46,1.676-0.821,2.487-1.086c0.052,0.035,0.141,0.11,0.265,0.226
		c0.123,0.114,0.22,0.198,0.289,0.25c-0.053-0.035-0.086-0.018-0.104,0.054c-0.071,0.211-0.071,0.389,0,0.528
		c0.088,0.125,0.206,0.194,0.356,0.212c0.15,0.019,0.33,0.009,0.542-0.025c0.212-0.036,0.354-0.054,0.426-0.054l0.266,0.026
		c0.563,0.053,0.783,0,0.66-0.159c0.054,0.071,0.113,0.217,0.186,0.437c0.07,0.222,0.148,0.376,0.238,0.465
		c0.089-0.071,0.105-0.194,0.052-0.37c-0.052-0.177-0.052-0.301,0-0.372c0.019-0.034,0.072-0.07,0.16-0.105
		c0.089-0.035,0.189-0.075,0.305-0.119c0.115-0.045,0.189-0.075,0.226-0.093c0.105-0.071,0.034-0.193-0.213-0.37
		c-0.033-0.018-0.108-0.044-0.223-0.079c-0.115-0.035-0.218-0.071-0.306-0.106c-0.09-0.035-0.182-0.084-0.277-0.146
		s-0.141-0.133-0.133-0.212c0.009-0.08,0.058-0.182,0.145-0.305c0.106-0.089,0.279-0.124,0.518-0.105
		c0.236,0.018,0.42,0.062,0.543,0.131c0.478,0.266,0.547,0.504,0.213,0.717c0.175,0.016,0.388,0.088,0.633,0.212
		c0.247,0.124,0.345,0.256,0.292,0.396c0.143-0.265,0.283-0.396,0.424-0.396c0.089,0.018,0.172,0.137,0.251,0.356
		c0.08,0.22,0.128,0.339,0.146,0.357c0.142,0.194,0.281,0.238,0.425,0.132c0.14-0.105,0.285-0.26,0.438-0.462
		c0.148-0.204,0.232-0.297,0.25-0.278c-0.177-0.069-0.193-0.141-0.053-0.211c0.265-0.158,0.503-0.204,0.713-0.132
		c0.054,0.035,0.125,0.115,0.21,0.239c0.16,0.316,0.134,0.467-0.078,0.448c0.16,0.143,0.225,0.318,0.199,0.531
		c-0.025,0.211-0.165,0.308-0.411,0.291c-0.089,0-0.215-0.044-0.385-0.132c-0.167-0.089-0.295-0.137-0.383-0.146
		c-0.09-0.009-0.212,0.039-0.372,0.146c-0.069,0.088-0.163,0.237-0.277,0.449c-0.113,0.212-0.217,0.362-0.305,0.45
		c-0.265,0.265-0.705,0.362-1.323,0.29c0.055,0,0.05,0.054-0.014,0.16c-0.062,0.105-0.146,0.225-0.251,0.357
		c-0.105,0.132-0.168,0.207-0.188,0.224c-0.157,0.178-0.264,0.381-0.315,0.61c0,0.035-0.009,0.153-0.026,0.357
		c-0.02,0.201-0.054,0.357-0.105,0.463c0.212-0.053,0.38,0.053,0.504,0.318c0.104,0.247,0.104,0.38,0,0.396
		c0.582-0.088,1.094-0.052,1.535,0.106c0.634,0.229,0.999,0.458,1.085,0.688c0.104-0.158,0.359-0.168,0.767-0.025
		c0.16,0.088,0.3,0.352,0.425,0.793c0.07,0.264,0.19,0.494,0.357,0.688c0.168,0.194,0.349,0.246,0.542,0.158l0.08-0.053
		c0.068-0.036,0.129-0.066,0.172-0.093c0.044-0.026,0.092-0.062,0.146-0.105c0.052-0.045,0.082-0.085,0.092-0.119
		c0.009-0.035-0.005-0.071-0.04-0.105c-0.123-0.106-0.214-0.252-0.277-0.437c-0.061-0.186-0.048-0.35,0.041-0.489
		c0.052-0.071,0.193-0.177,0.422-0.319c0.229-0.141,0.372-0.281,0.425-0.424c0.071-0.229-0.018-0.418-0.266-0.568
		c-0.246-0.15-0.369-0.286-0.369-0.41c0-0.089,0.057-0.194,0.171-0.318c0.114-0.123,0.163-0.238,0.146-0.344
		c0-0.054-0.032-0.164-0.095-0.33c-0.061-0.169-0.097-0.292-0.105-0.371s0.031-0.172,0.12-0.277c0.123-0.07,0.414-0.066,0.874,0.014
		c0.458,0.079,0.759,0.162,0.898,0.251c0.055,0.035,0.168,0.088,0.345,0.159c0.177,0.069,0.331,0.145,0.464,0.226
		c0.133,0.078,0.208,0.153,0.224,0.224h-0.131c0.122,0.106,0.198,0.229,0.226,0.371c0.024,0.142-0.04,0.247-0.199,0.317
		c0.104-0.018,0.246,0.01,0.424,0.079c0.281,0.106,0.29,0.204,0.025,0.291c0.054-0.018,0.129-0.035,0.226-0.054
		c0.096-0.016,0.171-0.043,0.225-0.078c0.034-0.018,0.079-0.049,0.133-0.093c0.055-0.043,0.094-0.071,0.119-0.079
		c0.026-0.009,0.066-0.019,0.119-0.027c0.055-0.008,0.106,0.005,0.158,0.04c0.021,0,0.058-0.044,0.12-0.132
		c0.06-0.088,0.127-0.176,0.197-0.265c0.069-0.087,0.132-0.132,0.187-0.132c0.052,0,0.101,0.022,0.146,0.066
		c0.044,0.044,0.079,0.092,0.104,0.146c0.026,0.053,0.055,0.11,0.08,0.172c0.026,0.061,0.049,0.11,0.066,0.146
		c0.034,0.089,0.118,0.182,0.251,0.278c0.132,0.098,0.215,0.189,0.249,0.278c0.02,0.053,0.055,0.186,0.105,0.396
		c0.055,0.212,0.125,0.358,0.212,0.437c0.087,0.08,0.221,0.146,0.396,0.198c0.036,0.019,0.116,0.009,0.239-0.026
		c0.123-0.035,0.225-0.044,0.305-0.025c0.079,0.017,0.118,0.087,0.118,0.211c0.104-0.105,0.159-0.176,0.159-0.211
		c0.019,0.229,0.073,0.414,0.172,0.555c0.098,0.141,0.25,0.203,0.462,0.186l-0.052,0.582c-0.055,0.089-0.186,0.154-0.396,0.197
		c-0.212,0.045-0.345,0.085-0.396,0.119c-0.054,0.019-0.182,0.124-0.386,0.319c-0.203,0.193-0.285,0.309-0.25,0.344
		c-0.3-0.336-0.749-0.434-1.349-0.292c-0.67,0.106-1.13,0.212-1.378,0.317c-0.28,0.142-0.477,0.274-0.581,0.396
		c-0.02,0.019-0.049,0.079-0.093,0.186c-0.045,0.105-0.089,0.203-0.133,0.29c-0.046,0.088-0.084,0.132-0.118,0.132
		c0.104-0.017,0.225-0.101,0.355-0.251c0.133-0.15,0.217-0.233,0.251-0.251c0.459-0.3,0.838-0.405,1.14-0.315
		c0.391,0.106,0.449,0.247,0.186,0.424c-0.034,0.036-0.127,0.048-0.277,0.04c-0.148-0.009-0.251-0.004-0.304,0.013
		c0.16,0.035,0.29,0.084,0.396,0.146c0.105,0.063,0.134,0.146,0.079,0.252c0.283,0.158,0.335,0.336,0.16,0.529
		c-0.23,0.229-0.503,0.326-0.819,0.29c0.054,0,0.054,0.036,0,0.105l-0.45,0.292c-0.035,0.018-0.151,0.063-0.345,0.132
		c-0.195,0.071-0.327,0.15-0.396,0.238c-0.053,0.07-0.079,0.177-0.079,0.318c0,0.143-0.01,0.247-0.026,0.317
		c-0.019,0.072-0.09,0.089-0.211,0.054c-0.054,0.106-0.217,0.19-0.489,0.252c-0.273,0.061-0.454,0.154-0.544,0.277
		c0.105,0.143,0.098,0.283-0.025,0.424c-0.212,0.176-0.397,0.158-0.556-0.054c-0.087,0.036-0.154,0.124-0.197,0.265
		c-0.046,0.142-0.111,0.238-0.199,0.292c0.124,0.193,0.105,0.336-0.054,0.424c0.019,0,0.058,0.018,0.119,0.053
		c0.061,0.034,0.128,0.079,0.198,0.132c0.07,0.052,0.113,0.078,0.132,0.078c-0.071,0.159-0.169,0.238-0.29,0.238
		c0.104,0.282-0.026,0.592-0.396,0.926c-0.071,0.071-0.182,0.142-0.33,0.212c-0.151,0.07-0.287,0.128-0.411,0.172
		s-0.193,0.075-0.212,0.092c-0.177,0.16-0.31,0.322-0.396,0.491c-0.088,0.167-0.102,0.33-0.039,0.489
		c0.061,0.158,0.225,0.265,0.488,0.318l0.026,0.211v0.476l0.025,0.212c0.019,0.124,0.032,0.234,0.04,0.332
		c0.009,0.098,0.009,0.22,0,0.37c-0.008,0.149-0.049,0.233-0.12,0.251c-0.069,0.019-0.167,0-0.289-0.053
		c-0.143-0.071-0.312-0.459-0.505-1.166c-0.035-0.176-0.141-0.386-0.316-0.634c-0.091,0.087-0.165,0.146-0.226,0.172
		c-0.063,0.025-0.106,0.031-0.132,0.012c-0.025-0.018-0.076-0.057-0.146-0.118c-0.071-0.062-0.132-0.111-0.186-0.146
		c-0.09-0.052-0.244-0.096-0.466-0.132c-0.219-0.036-0.355-0.08-0.408-0.132c-0.425,0.317-0.681,0.237-0.769-0.238
		c-0.036,0.088-0.031,0.208,0.014,0.357c0.045,0.15,0.066,0.233,0.066,0.251c-0.125,0.23-0.317,0.246-0.582,0.054
		c-0.104-0.106-0.35-0.12-0.729-0.04c-0.379,0.08-0.631,0.094-0.756,0.04c0.021,0,0.056,0.026,0.106,0.079
		c0.054,0.035,0.09,0.062,0.106,0.079c-0.021,0.07-0.047,0.122-0.08,0.159c-0.036,0.034-0.07,0.047-0.106,0.038
		c-0.035-0.008-0.074-0.008-0.118,0c-0.045,0.009-0.085,0.022-0.119,0.04c-0.07,0.053-0.159,0.145-0.265,0.276
		c-0.104,0.133-0.186,0.217-0.239,0.252c0.105,0.283,0.154,0.499,0.146,0.648c-0.01,0.15-0.036,0.372-0.08,0.662
		c-0.043,0.291-0.066,0.524-0.066,0.701c0,0.281,0.085,0.609,0.251,0.98c0.17,0.37,0.366,0.626,0.598,0.768
		c0.124,0.07,0.335,0.114,0.635,0.131c0.3,0.02,0.511,0,0.636-0.052c0.104-0.053,0.185-0.114,0.237-0.186
		c0.054-0.07,0.096-0.173,0.131-0.304c0.037-0.132,0.063-0.226,0.081-0.277c0.124-0.336,0.354-0.513,0.687-0.53
		c0.214-0.017,0.366,0.006,0.466,0.066c0.098,0.063,0.137,0.146,0.119,0.252c-0.019,0.105-0.054,0.216-0.105,0.332
		c-0.053,0.114-0.119,0.241-0.198,0.384c-0.079,0.141-0.129,0.247-0.146,0.318c-0.035,0.141-0.066,0.34-0.094,0.596
		c-0.026,0.256-0.048,0.41-0.065,0.463c0.035,0.018,0.167,0.026,0.396,0.026c0-0.035,0.015-0.094,0.041-0.172
		c0.024-0.08,0.039-0.128,0.039-0.146c0.087,0.143,0.229,0.221,0.423,0.238c0.195,0.019,0.335-0.054,0.426-0.212
		c0.033,0.053,0.141,0.187,0.317,0.397c0.177,0.211,0.272,0.388,0.29,0.528c0.021,0.071,0.054,0.186,0.105,0.345
		c0.053,0.158,0.07,0.269,0.055,0.332c-0.019,0.061-0.106,0.092-0.266,0.092c-0.07,0-0.115,0.026-0.133,0.08
		c-0.019,0.054-0.019,0.118,0,0.197c0.02,0.079,0.041,0.155,0.066,0.227c0.024,0.07,0.06,0.146,0.106,0.226
		c0.043,0.077,0.063,0.126,0.063,0.144c0.318,0.582,0.75,0.74,1.298,0.478c0,0.51-0.124,0.793-0.372,0.846
		C701.576,166.31,701.418,166.221,701.241,166.009z M701.637,171.987c-0.033-0.176-0.054-0.316-0.053-0.422
		c-0.018-0.143,0.046-0.331,0.186-0.568c0.142-0.239,0.213-0.42,0.213-0.543c-0.283-0.071-0.39-0.301-0.319-0.688
		c0.036-0.265,0.291-0.617,0.769-1.059c0.336-0.302,0.439-0.724,0.318-1.271c-0.054-0.229-0.097-0.566-0.132-1.005
		c-0.035-0.442-0.071-0.75-0.106-0.928c0,0.054,0.083,0.103,0.252,0.146c0.167,0.043,0.271,0.103,0.305,0.172
		c0.034-0.054,0.08-0.15,0.132-0.291c0.055-0.142,0.105-0.246,0.158-0.318c0.036-0.054,0.109-0.118,0.226-0.199
		c0.115-0.079,0.189-0.127,0.227-0.146c0.034-0.018,0.113-0.075,0.236-0.17c0.124-0.099,0.227-0.172,0.308-0.226
		c0.077-0.053,0.185-0.093,0.315-0.118c0.132-0.026,0.227,0.013,0.279,0.118c0.088,0.105,0.068,0.268-0.055,0.49
		c-0.123,0.221-0.123,0.374,0,0.463c0.02-0.053,0.034-0.169,0.055-0.345c0.018-0.177,0.068-0.309,0.158-0.397
		c0.104-0.105,0.207-0.168,0.305-0.184c0.097-0.019,0.185-0.005,0.265,0.038c0.078,0.045,0.17,0.105,0.277,0.187
		c0.106,0.079,0.202,0.127,0.291,0.145c0.265,0.089,0.582,0.282,0.954,0.583c-0.02-0.019-0.02-0.04,0-0.066
		c0.017-0.026,0.052-0.054,0.104-0.078c0.055-0.027,0.103-0.054,0.146-0.08c0.043-0.026,0.091-0.049,0.144-0.066l0.08-0.025
		c0.123,0,0.211-0.009,0.265-0.026c0.054-0.02,0.13,0,0.226,0.052c0.095,0.053,0.163,0.094,0.198,0.119
		c0.035,0.027,0.098,0.074,0.185,0.146c0.088,0.07,0.15,0.124,0.186,0.158c0.055,0.036,0.148,0.097,0.292,0.186
		c0.14,0.088,0.25,0.159,0.33,0.21c0.079,0.054,0.149,0.134,0.212,0.238c0.061,0.107,0.083,0.222,0.064,0.346
		c0.105,0.019,0.317,0.088,0.634,0.21c0.057,0.036,0.164,0.067,0.332,0.093c0.168,0.026,0.279,0.067,0.33,0.119
		C708.368,169.686,705.271,171.353,701.637,171.987z"/>
</g>
<g>
	<g>
		<path fill="#8DA3FF" d="M453.873,153.636c20.963,0,38.688,8.655,39.286,19.015c-0.599,10.359-18.323,19.017-39.286,19.017
			s-38.687-8.655-39.287-19.017C415.188,162.29,432.91,153.636,453.873,153.636z"/>
		<path fill="#8DA3FF" d="M493.218,229.238c0,10.598-18.016,19.551-39.345,19.551c-21.328,0-39.343-8.953-39.343-19.551v-9.35
			c6.734,8.088,21.632,13.589,39.343,13.589c17.71,0,32.607-5.502,39.345-13.589V229.238L493.218,229.238z"/>
		<path fill="#8DA3FF" d="M493.218,210.064c0,10.598-18.016,19.552-39.345,19.552c-21.328,0-39.343-8.954-39.343-19.552v-9.737
			c6.734,8.086,21.632,13.585,39.343,13.585c17.71,0,32.607-5.502,39.345-13.585V210.064L493.218,210.064z"/>
		<path fill="#8DA3FF" d="M493.218,190.498c0,10.599-18.016,19.551-39.345,19.551c-21.328,0-39.343-8.952-39.343-19.551v-8.557
			c6.734,8.089,21.632,13.585,39.343,13.585c17.71,0,32.607-5.499,39.345-13.585V190.498z"/>
	</g>
</g>
<g>
	<path fill="#111635" d="M60.286,263.296v5.379c0,1.216,0.356,1.584,0.786,1.584c0.466,0,0.798-0.331,0.798-1.584v-5.379h1.608
		v5.096c0,2.125-0.811,3.279-2.396,3.279c-1.731,0-2.407-1.203-2.407-3.266v-5.108L60.286,263.296L60.286,263.296z"/>
	<path fill="#111635" d="M64.861,271.572v-8.276h1.474l1.277,3.254c0.258,0.627,0.651,1.694,0.885,2.407h0.024
		c-0.048-0.86-0.159-2.309-0.159-3.831v-1.829h1.413v8.276h-1.474l-1.265-3.155c-0.283-0.688-0.651-1.744-0.848-2.48h-0.024
		c0.049,0.835,0.11,2.111,0.11,3.77v1.867h-1.413V271.572z"/>
	<path fill="#111635" d="M72.35,271.572l-1.842-8.276h1.781l0.589,3.573c0.135,0.896,0.307,1.904,0.417,2.874h0.025
		c0.111-0.982,0.245-1.978,0.393-2.911l0.565-3.536h1.769l-1.891,8.276H72.35L72.35,271.572z"/>
	<path fill="#111635" d="M80.229,267.937h-1.878v2.235h2.124v1.399h-3.734v-8.276h3.598v1.399h-1.988v1.903h1.878V267.937z"/>
	<path fill="#111635" d="M81.578,263.418c0.503-0.098,1.142-0.159,1.756-0.159c0.885,0,1.682,0.123,2.21,0.613
		c0.503,0.455,0.663,1.007,0.663,1.72c0,0.884-0.441,1.682-1.277,2.063v0.024c0.565,0.233,0.848,0.75,1.007,1.646
		c0.159,0.922,0.38,1.94,0.528,2.247h-1.682c-0.11-0.233-0.295-1.068-0.418-1.99c-0.147-1.018-0.405-1.313-0.933-1.313h-0.244v3.303
		H81.58L81.578,263.418L81.578,263.418z M83.187,267.029h0.294c0.7,0,1.093-0.565,1.093-1.289c0-0.713-0.282-1.204-0.995-1.229
		c-0.148,0-0.307,0.013-0.393,0.05L83.187,267.029L83.187,267.029z"/>
	<path fill="#111635" d="M87.162,269.927c0.331,0.185,0.908,0.319,1.362,0.319c0.75,0,1.13-0.393,1.13-0.934
		c0-0.602-0.369-0.896-1.068-1.351c-1.129-0.687-1.559-1.56-1.559-2.309c0-1.325,0.884-2.431,2.603-2.431
		c0.552,0,1.068,0.159,1.302,0.295l-0.258,1.388c-0.233-0.147-0.589-0.282-1.044-0.282c-0.688,0-1.019,0.417-1.019,0.847
		c0,0.504,0.245,0.762,1.129,1.302c1.105,0.663,1.499,1.498,1.499,2.37c0,1.51-1.117,2.506-2.726,2.506
		c-0.664,0-1.302-0.172-1.584-0.332L87.162,269.927z"/>
	<path fill="#111635" d="M93.791,263.296v8.276h-1.608v-8.276H93.791z"/>
	<path fill="#111635" d="M97.436,271.67c-1.879,0-2.615-1.989-2.615-4.261c0-2.26,0.896-4.212,2.738-4.212
		c1.989,0,2.554,2.197,2.554,4.089c0,3.119-1.105,4.384-2.664,4.384H97.436z M97.497,270.271c0.688,0,0.945-1.228,0.945-2.91
		c0-1.461-0.221-2.763-0.958-2.763c-0.712,0-1.006,1.302-0.995,2.8c-0.024,1.646,0.282,2.873,0.995,2.873H97.497L97.497,270.271z"/>
	<path fill="#111635" d="M101.128,271.572v-8.276h1.474l1.277,3.254c0.258,0.627,0.651,1.694,0.885,2.407h0.024
		c-0.048-0.86-0.159-2.309-0.159-3.831v-1.829h1.413v8.276h-1.474l-1.265-3.155c-0.283-0.688-0.651-1.744-0.848-2.48h-0.024
		c0.049,0.835,0.11,2.111,0.11,3.77v1.867h-1.413V271.572z"/>
	<path fill="#111635" d="M110.948,267.937h-1.878v2.235h2.125v1.399h-3.733v-8.276h3.599v1.399h-1.989v1.903h1.878L110.948,267.937
		L110.948,267.937z"/>
	<path fill="#111635" d="M112.296,263.418c0.406-0.098,0.995-0.159,1.633-0.159c1.044,0,1.769,0.245,2.297,0.736
		c0.712,0.64,1.081,1.732,1.081,3.34c0,1.67-0.43,2.861-1.154,3.5c-0.565,0.527-1.376,0.798-2.518,0.798
		c-0.515,0-1.018-0.049-1.339-0.086V263.418z M113.906,270.295c0.086,0.024,0.196,0.024,0.283,0.024
		c0.773,0,1.449-0.762,1.449-3.045c0-1.695-0.442-2.727-1.412-2.727c-0.11,0-0.221,0-0.32,0.037V270.295z"/>
	<path fill="#111635" d="M79.848,278.022h3.598v1.399h-1.989v2.125h1.867v1.339h-1.867v3.414h-1.608L79.848,278.022L79.848,278.022z
		"/>
	<path fill="#111635" d="M86.267,278.022v8.277h-1.608v-8.277H86.267z"/>
	<path fill="#111635" d="M87.701,278.022h1.609v6.913h2.112v1.364h-3.721V278.022z"/>
	<path fill="#111635" d="M95.853,282.665h-1.878v2.235H96.1v1.399h-3.733v-8.277h3.598v1.399h-1.989v1.904h1.878L95.853,282.665
		L95.853,282.665z"/>
</g>
<g>
	<path fill="#111635" d="M243.923,181.521c0.332,0.186,0.908,0.32,1.362,0.32c0.75,0,1.13-0.394,1.13-0.934
		c0-0.603-0.368-0.896-1.068-1.351c-1.13-0.688-1.56-1.56-1.56-2.309c0-1.326,0.884-2.432,2.603-2.432
		c0.552,0,1.068,0.159,1.302,0.294l-0.258,1.389c-0.233-0.147-0.589-0.283-1.044-0.283c-0.688,0-1.019,0.418-1.019,0.848
		c0,0.503,0.245,0.762,1.13,1.302c1.105,0.663,1.498,1.498,1.498,2.37c0,1.51-1.117,2.505-2.726,2.505
		c-0.664,0-1.302-0.172-1.584-0.331L243.923,181.521z"/>
	<path fill="#111635" d="M250.097,183.167l-1.842-8.276h1.78l0.589,3.574c0.135,0.896,0.307,1.903,0.417,2.873h0.024
		c0.11-0.982,0.245-1.978,0.393-2.91l0.565-3.537h1.768l-1.891,8.276H250.097z"/>
	<path fill="#111635" d="M254.49,183.167v-8.276h1.474l1.277,3.255c0.258,0.626,0.651,1.694,0.884,2.406h0.024
		c-0.048-0.859-0.159-2.308-0.159-3.831v-1.829h1.413v8.276h-1.474l-1.264-3.155c-0.283-0.688-0.651-1.743-0.848-2.48h-0.024
		c0.049,0.836,0.11,2.112,0.11,3.771v1.866h-1.413L254.49,183.167L254.49,183.167z"/>
	<path fill="#111635" d="M264.088,181.276l-0.368,1.891h-1.56l1.792-8.276h1.928l1.609,8.276h-1.572l-0.344-1.891H264.088z
		 M265.427,180.023l-0.27-1.731c-0.086-0.503-0.196-1.339-0.27-1.879h-0.037c-0.086,0.552-0.208,1.399-0.294,1.879l-0.307,1.731
		H265.427z"/>
	<path fill="#111635" d="M268.395,175.014c0.406-0.098,0.995-0.159,1.633-0.159c1.044,0,1.769,0.245,2.297,0.737
		c0.712,0.639,1.081,1.731,1.081,3.339c0,1.671-0.43,2.861-1.154,3.5c-0.565,0.527-1.376,0.798-2.518,0.798
		c-0.515,0-1.018-0.048-1.339-0.085V175.014L268.395,175.014z M270.004,181.89c0.086,0.025,0.196,0.025,0.282,0.025
		c0.773,0,1.449-0.762,1.449-3.046c0-1.694-0.442-2.727-1.412-2.727c-0.11,0-0.221,0-0.319,0.037V181.89L270.004,181.89z"/>
	<path fill="#111635" d="M274.421,175.014c0.406-0.098,0.995-0.159,1.633-0.159c1.043,0,1.769,0.245,2.297,0.737
		c0.712,0.639,1.081,1.731,1.081,3.339c0,1.671-0.43,2.861-1.154,3.5c-0.565,0.527-1.376,0.798-2.518,0.798
		c-0.515,0-1.018-0.048-1.339-0.085V175.014L274.421,175.014z M276.03,181.89c0.086,0.025,0.196,0.025,0.283,0.025
		c0.773,0,1.449-0.762,1.449-3.046c0-1.694-0.441-2.727-1.412-2.727c-0.11,0-0.221,0-0.32,0.037V181.89L276.03,181.89z"/>
</g>
<g>
	<path fill="#111635" d="M542.032,181.521c0.332,0.186,0.909,0.32,1.362,0.32c0.749,0,1.131-0.394,1.131-0.934
		c0-0.603-0.368-0.896-1.068-1.351c-1.13-0.688-1.561-1.56-1.561-2.309c0-1.326,0.886-2.432,2.604-2.432
		c0.552,0,1.069,0.159,1.302,0.294l-0.258,1.389c-0.233-0.147-0.589-0.283-1.044-0.283c-0.688,0-1.019,0.418-1.019,0.848
		c0,0.503,0.243,0.762,1.129,1.302c1.104,0.663,1.498,1.498,1.498,2.37c0,1.51-1.116,2.505-2.728,2.505
		c-0.663,0-1.302-0.172-1.584-0.331L542.032,181.521z"/>
	<path fill="#111635" d="M548.206,183.167l-1.841-8.276h1.779l0.591,3.574c0.133,0.896,0.307,1.903,0.417,2.873h0.023
		c0.109-0.982,0.245-1.978,0.394-2.91l0.563-3.537h1.77l-1.892,8.276H548.206z"/>
	<path fill="#111635" d="M552.6,183.167v-8.276h1.475l1.275,3.255c0.26,0.626,0.651,1.694,0.886,2.406h0.023
		c-0.049-0.859-0.16-2.308-0.16-3.831v-1.829h1.413v8.276h-1.474l-1.265-3.155c-0.283-0.688-0.65-1.743-0.849-2.48h-0.022
		c0.049,0.836,0.109,2.112,0.109,3.771v1.866H552.6V183.167z"/>
	<path fill="#111635" d="M564.85,183.044c-0.232,0.11-0.688,0.197-1.239,0.197c-2.124,0-3.132-1.732-3.132-4.09
		c0-3.119,1.731-4.335,3.341-4.335c0.563,0,0.958,0.123,1.116,0.221l-0.271,1.352c-0.185-0.087-0.394-0.16-0.749-0.16
		c-0.909,0-1.731,0.786-1.731,2.837c0,1.977,0.748,2.751,1.731,2.751c0.27,0,0.577-0.063,0.773-0.124L564.85,183.044z"/>
	<path fill="#111635" d="M567.795,183.265c-1.878,0-2.615-1.988-2.615-4.261c0-2.26,0.896-4.212,2.738-4.212
		c1.988,0,2.553,2.198,2.553,4.089c0,3.119-1.104,4.384-2.663,4.384H567.795z M567.856,181.865c0.688,0,0.944-1.227,0.944-2.91
		c0-1.461-0.221-2.763-0.958-2.763c-0.712,0-1.006,1.302-0.995,2.8c-0.022,1.646,0.282,2.873,0.995,2.873H567.856L567.856,181.865z"
		/>
	<path fill="#111635" d="M576.547,180.271c-0.05-0.786-0.099-1.843-0.087-2.739h-0.022c-0.147,0.885-0.368,1.904-0.529,2.542
		l-0.725,2.959h-1.13l-0.688-2.91c-0.16-0.663-0.381-1.694-0.517-2.591h-0.023c-0.025,0.896-0.088,1.941-0.124,2.763l-0.147,2.873
		h-1.376l0.591-8.276h1.707l0.661,2.996c0.222,1.044,0.432,1.965,0.578,2.898h0.037c0.122-0.921,0.308-1.854,0.515-2.898
		l0.663-2.996h1.694l0.503,8.276h-1.437L576.547,180.271z"/>
	<path fill="#111635" d="M584.364,180.271c-0.05-0.786-0.1-1.843-0.087-2.739h-0.022c-0.147,0.885-0.369,1.904-0.528,2.542
		l-0.726,2.959h-1.13l-0.688-2.91c-0.16-0.663-0.382-1.694-0.516-2.591h-0.023c-0.025,0.896-0.088,1.941-0.123,2.763l-0.147,2.873
		h-1.377l0.59-8.276h1.707l0.663,2.996c0.221,1.044,0.43,1.965,0.577,2.898h0.037c0.122-0.921,0.307-1.854,0.516-2.898l0.662-2.996
		h1.694l0.503,8.276h-1.438L584.364,180.271z"/>
	<path fill="#111635" d="M588.732,174.891v8.276h-1.607v-8.276H588.732z"/>
	<path fill="#111635" d="M591.064,176.376h-1.463v-1.486h4.545v1.486h-1.475v6.79h-1.606L591.064,176.376L591.064,176.376z"/>
</g>
<g>
	<path fill="#111635" d="M429.146,263.296h1.607v6.913h2.112v1.363h-3.722v-8.276H429.146z"/>
	<path fill="#111635" d="M435.688,271.67c-1.879,0-2.616-1.989-2.616-4.261c0-2.26,0.896-4.212,2.738-4.212
		c1.988,0,2.555,2.197,2.555,4.089c0,3.119-1.106,4.384-2.665,4.384H435.688z M435.749,270.271c0.688,0,0.946-1.228,0.946-2.91
		c0-1.461-0.222-2.763-0.958-2.763c-0.712,0-1.009,1.302-0.995,2.8c-0.023,1.646,0.282,2.873,0.995,2.873H435.749L435.749,270.271z"
		/>
	<path fill="#111635" d="M443.348,271.449c-0.232,0.11-0.688,0.196-1.24,0.196c-2.124,0-3.132-1.731-3.132-4.089
		c0-3.12,1.732-4.335,3.341-4.335c0.563,0,0.958,0.123,1.116,0.221l-0.271,1.351c-0.185-0.086-0.395-0.159-0.748-0.159
		c-0.909,0-1.732,0.785-1.732,2.836c0,1.977,0.749,2.751,1.732,2.751c0.27,0,0.577-0.062,0.773-0.123L443.348,271.449z"/>
	<path fill="#111635" d="M445.738,269.681l-0.368,1.892h-1.561l1.793-8.276h1.929l1.607,8.276h-1.57l-0.345-1.892H445.738z
		 M447.077,268.429l-0.271-1.732c-0.086-0.503-0.195-1.339-0.27-1.879h-0.037c-0.086,0.552-0.208,1.399-0.294,1.879l-0.308,1.732
		H447.077z"/>
	<path fill="#111635" d="M450.046,263.296h1.608v6.913h2.111v1.363h-3.721L450.046,263.296L450.046,263.296z"/>
	<path fill="#111635" d="M456.661,263.418c0.503-0.098,1.142-0.159,1.755-0.159c0.885,0,1.683,0.123,2.21,0.613
		c0.504,0.455,0.662,1.007,0.662,1.72c0,0.884-0.441,1.682-1.275,2.063v0.024c0.564,0.233,0.848,0.75,1.006,1.646
		c0.16,0.922,0.381,1.94,0.527,2.247h-1.681c-0.11-0.233-0.295-1.068-0.417-1.99c-0.148-1.018-0.406-1.313-0.935-1.313h-0.246v3.303
		h-1.606V263.418L456.661,263.418z M458.27,267.029h0.296c0.698,0,1.093-0.565,1.093-1.289c0-0.713-0.282-1.204-0.994-1.229
		c-0.148,0-0.307,0.013-0.396,0.05L458.27,267.029L458.27,267.029z"/>
	<path fill="#111635" d="M465.917,267.937h-1.88v2.235h2.126v1.399h-3.732v-8.276h3.599v1.399h-1.99v1.903h1.88L465.917,267.937
		L465.917,267.937z"/>
	<path fill="#111635" d="M467.265,263.418c0.455-0.098,1.068-0.159,1.684-0.159c0.957,0,1.718,0.147,2.246,0.639
		c0.49,0.441,0.712,1.117,0.712,1.816c0,0.896-0.271,1.536-0.699,1.99c-0.516,0.552-1.339,0.799-2.015,0.799
		c-0.11,0-0.209,0-0.32-0.014v3.083h-1.606L467.265,263.418L467.265,263.418z M468.873,267.188c0.087,0.014,0.172,0.014,0.271,0.014
		c0.812,0,1.167-0.578,1.167-1.352c0-0.724-0.295-1.288-1.044-1.288c-0.146,0-0.295,0.024-0.394,0.062V267.188L468.873,267.188z"/>
	<path fill="#111635" d="M475.083,271.67c-1.878,0-2.615-1.989-2.615-4.261c0-2.26,0.896-4.212,2.737-4.212
		c1.989,0,2.554,2.197,2.554,4.089c0,3.119-1.104,4.384-2.664,4.384H475.083z M475.145,270.271c0.688,0,0.945-1.228,0.945-2.91
		c0-1.461-0.221-2.763-0.958-2.763c-0.712,0-1.007,1.302-0.995,2.8c-0.023,1.646,0.282,2.873,0.995,2.873H475.145L475.145,270.271z"
		/>
</g>
<g>
	<path fill="#111635" d="M670.429,263.418c0.504-0.098,1.144-0.159,1.756-0.159c0.885,0,1.683,0.123,2.209,0.613
		c0.506,0.455,0.663,1.007,0.663,1.72c0,0.884-0.44,1.682-1.275,2.063v0.024c0.563,0.233,0.848,0.75,1.007,1.646
		c0.159,0.922,0.38,1.94,0.528,2.247h-1.684c-0.109-0.233-0.295-1.068-0.417-1.99c-0.147-1.018-0.405-1.313-0.933-1.313h-0.246
		v3.303h-1.608V263.418L670.429,263.418z M672.037,267.029h0.295c0.698,0,1.093-0.565,1.093-1.289c0-0.713-0.283-1.204-0.995-1.229
		c-0.146,0-0.307,0.013-0.394,0.05L672.037,267.029L672.037,267.029z"/>
	<path fill="#111635" d="M679.685,267.937h-1.879v2.235h2.124v1.399h-3.731v-8.276h3.599v1.399h-1.99v1.903h1.881L679.685,267.937
		L679.685,267.937z"/>
	<path fill="#111635" d="M686.092,268.674c-0.05-0.786-0.099-1.843-0.087-2.738h-0.022c-0.147,0.884-0.369,1.903-0.528,2.542
		l-0.727,2.959h-1.129l-0.688-2.91c-0.16-0.663-0.381-1.695-0.516-2.591h-0.023c-0.024,0.896-0.087,1.94-0.123,2.763l-0.147,2.873
		h-1.376l0.59-8.276h1.706l0.663,2.996c0.223,1.044,0.431,1.965,0.577,2.897h0.037c0.122-0.92,0.309-1.854,0.517-2.897l0.661-2.996
		h1.695l0.504,8.276h-1.438L686.092,268.674z"/>
	<path fill="#111635" d="M691.061,271.67c-1.877,0-2.614-1.989-2.614-4.261c0-2.26,0.896-4.212,2.737-4.212
		c1.988,0,2.555,2.197,2.555,4.089c0,3.119-1.105,4.384-2.664,4.384H691.061z M691.122,270.271c0.688,0,0.945-1.228,0.945-2.91
		c0-1.461-0.222-2.763-0.957-2.763c-0.713,0-1.009,1.302-0.996,2.8c-0.023,1.646,0.283,2.873,0.996,2.873H691.122L691.122,270.271z"
		/>
	<path fill="#111635" d="M695.564,264.781h-1.463v-1.486h4.544v1.486h-1.475v6.79h-1.605L695.564,264.781L695.564,264.781z"/>
	<path fill="#111635" d="M702.979,267.937H701.1v2.235h2.124v1.399h-3.73v-8.276h3.598v1.399h-1.99v1.903h1.881L702.979,267.937
		L702.979,267.937z"/>
	<path fill="#111635" d="M706.278,263.418c0.503-0.098,1.142-0.159,1.755-0.159c0.885,0,1.683,0.123,2.21,0.613
		c0.504,0.455,0.662,1.007,0.662,1.72c0,0.884-0.441,1.682-1.275,2.063v0.024c0.564,0.233,0.847,0.75,1.006,1.646
		c0.16,0.922,0.38,1.94,0.527,2.247h-1.681c-0.111-0.233-0.296-1.068-0.419-1.99c-0.146-1.018-0.404-1.313-0.934-1.313h-0.245v3.303
		h-1.606V263.418L706.278,263.418z M707.887,267.029h0.295c0.699,0,1.094-0.565,1.094-1.289c0-0.713-0.282-1.204-0.994-1.229
		c-0.148,0-0.309,0.013-0.396,0.05L707.887,267.029L707.887,267.029z"/>
	<path fill="#111635" d="M715.534,267.937h-1.88v2.235h2.126v1.399h-3.732v-8.276h3.599v1.399h-1.99v1.903h1.88L715.534,267.937
		L715.534,267.937z"/>
	<path fill="#111635" d="M716.882,263.418c0.455-0.098,1.068-0.159,1.684-0.159c0.956,0,1.718,0.147,2.245,0.639
		c0.491,0.441,0.713,1.117,0.713,1.816c0,0.896-0.271,1.536-0.699,1.99c-0.517,0.552-1.339,0.799-2.016,0.799
		c-0.109,0-0.209,0-0.319-0.014v3.083h-1.607V263.418L716.882,263.418z M718.49,267.188c0.087,0.014,0.171,0.014,0.271,0.014
		c0.812,0,1.167-0.578,1.167-1.352c0-0.724-0.296-1.288-1.044-1.288c-0.146,0-0.296,0.024-0.394,0.062V267.188z"/>
	<path fill="#111635" d="M724.701,271.67c-1.879,0-2.616-1.989-2.616-4.261c0-2.26,0.896-4.212,2.738-4.212
		c1.988,0,2.554,2.197,2.554,4.089c0,3.119-1.104,4.384-2.663,4.384H724.701z M724.763,270.271c0.688,0,0.945-1.228,0.945-2.91
		c0-1.461-0.221-2.763-0.957-2.763c-0.713,0-1.008,1.302-0.996,2.8c-0.023,1.646,0.282,2.873,0.996,2.873H724.763L724.763,270.271z"
		/>
</g>
<g>
	<g>

			<line fill="none" stroke="#777777" stroke-width="6" stroke-miterlimit="10" x1="132.975" y1="201.176" x2="380.102" y2="201.176"/>
		<g>
			<polygon fill="#777777" stroke="#777777" stroke-miterlimit="10" points="398.861,201.577 371.843,212.618 378.255,201.577
				371.843,190.54 			"/>
		</g>
	</g>
</g>
<g>
	<g>

			<line fill="none" stroke="#777777" stroke-width="6" stroke-miterlimit="10" x1="506.834" y1="201.176" x2="512.266" y2="201.176"/>

			<line fill="none" stroke="#777777" stroke-width="6" stroke-miterlimit="10" stroke-dasharray="11,11" x1="522.224" y1="201.176" x2="615.462" y2="201.176"/>

			<line fill="none" stroke="#777777" stroke-width="6" stroke-miterlimit="10" x1="620.894" y1="201.176" x2="626.325" y2="201.176"/>
		<g>
			<polygon fill="#777777" stroke="#777777" stroke-miterlimit="10" points="645.313,201.577 618.293,212.618 624.705,201.577
				618.293,190.54 			"/>
		</g>
	</g>
</g>
<path fill="#FF8A8A" d="M105.522,353.343H59.557c-3.086,0-5.6,2.517-5.6,5.604v80.124c0,3.091,2.514,5.603,5.6,5.603h56.304
	c3.088,0,5.601-2.512,5.601-5.603v-68.406L105.522,353.343z M106.845,361.726l6.986,7.593h-6.986V361.726z M116.757,439.07
	c0,0.492-0.403,0.896-0.899,0.896H59.557c-0.495,0-0.896-0.403-0.896-0.896v-80.125c0-0.496,0.401-0.896,0.896-0.896h42.582v13.621
	c0,1.297,1.057,2.349,2.354,2.349h12.265L116.757,439.07L116.757,439.07z"/>
<g>
	<g>
		<path fill="#FF8A8A" d="M698.698,350.976c20.962,0,38.687,8.655,39.286,19.017c-0.6,10.357-18.324,19.016-39.286,19.016
			c-20.963,0-38.687-8.655-39.287-19.016C660.013,359.63,677.735,350.976,698.698,350.976z"/>
		<path fill="#FF8A8A" d="M738.043,426.578c0,10.598-18.016,19.55-39.345,19.55c-21.328,0-39.345-8.952-39.345-19.55v-9.351
			c6.735,8.089,21.633,13.589,39.345,13.589c17.71,0,32.606-5.501,39.345-13.589V426.578L738.043,426.578z"/>
		<path fill="#FF8A8A" d="M738.043,407.404c0,10.598-18.016,19.552-39.345,19.552c-21.328,0-39.345-8.954-39.345-19.552v-9.739
			c6.735,8.087,21.633,13.587,39.345,13.587c17.71,0,32.606-5.503,39.345-13.587V407.404L738.043,407.404z"/>
		<path fill="#FF8A8A" d="M738.043,387.838c0,10.6-18.016,19.551-39.345,19.551c-21.328,0-39.345-8.951-39.345-19.551v-8.556
			c6.735,8.088,21.633,13.584,39.345,13.584c17.71,0,32.606-5.499,39.345-13.584V387.838L738.043,387.838z"/>
	</g>
</g>
<g>
	<path fill="#721F1F" d="M716.299,342.452c-1.816-3.113-4.283-5.578-7.396-7.396c-3.114-1.816-6.515-2.727-10.202-2.727
		c-3.688,0-7.09,0.909-10.204,2.727c-3.113,1.815-5.579,4.282-7.396,7.396c-1.816,3.114-2.726,6.515-2.726,10.203
		c0,3.688,0.908,7.088,2.726,10.203c1.817,3.111,4.282,5.577,7.396,7.396s6.515,2.728,10.204,2.728c3.687,0,7.09-0.909,10.202-2.728
		c3.111-1.814,5.579-4.282,7.396-7.396c1.818-3.114,2.728-6.517,2.728-10.203C719.024,348.967,718.116,345.565,716.299,342.452z
		 M701.241,363.349c-0.176-0.212-0.238-0.388-0.186-0.528c-0.019,0.089-0.08,0.168-0.186,0.237
		c-0.089-0.105-0.246-0.237-0.478-0.396c-0.229-0.158-0.388-0.29-0.476-0.396c-0.035-0.053-0.084-0.129-0.146-0.226
		s-0.141-0.225-0.237-0.385c-0.097-0.157-0.167-0.295-0.212-0.41c-0.044-0.114-0.047-0.18-0.014-0.198
		c-0.336,0.142-0.818,0.045-1.454-0.29c-0.124-0.07-0.31-0.257-0.557-0.557c-0.246-0.301-0.503-0.433-0.769-0.396
		c-0.088,0.017-0.207,0.048-0.357,0.092c-0.148,0.045-0.276,0.066-0.383,0.066s-0.247-0.035-0.425-0.107
		c-0.141-0.051-0.331-0.152-0.569-0.302s-0.399-0.244-0.489-0.277c-0.229-0.123-0.345-0.187-0.345-0.187l-0.422-0.211
		c-0.105-0.054-0.217-0.137-0.331-0.25c-0.116-0.115-0.189-0.235-0.225-0.358c-0.034-0.105-0.079-0.316-0.132-0.637
		c-0.054-0.316-0.124-0.547-0.213-0.688c-0.104-0.177-0.256-0.354-0.448-0.528c-0.195-0.177-0.369-0.265-0.53-0.265
		c0.142,0,0.142-0.118,0-0.358c-0.14-0.238-0.265-0.41-0.369-0.515c-0.035-0.036-0.141-0.15-0.318-0.346
		c-0.177-0.192-0.324-0.36-0.449-0.503c-0.124-0.141-0.229-0.304-0.316-0.489c-0.09-0.186-0.105-0.341-0.055-0.463
		c0.018-0.018,0-0.045-0.053-0.079c-0.054-0.034-0.119-0.07-0.199-0.105c-0.078-0.036-0.154-0.065-0.225-0.094
		c-0.071-0.026-0.125-0.039-0.161-0.039c0.036,0.07,0.075,0.198,0.122,0.385c0.043,0.188,0.093,0.322,0.145,0.41
		c0.035,0.071,0.186,0.327,0.449,0.767c0.461,0.74,0.67,1.288,0.635,1.643c-0.104,0.036-0.176,0.018-0.21-0.055
		c-0.035-0.068-0.063-0.167-0.08-0.291c-0.021-0.122-0.035-0.212-0.054-0.263c-0.053-0.105-0.189-0.224-0.411-0.346
		c-0.22-0.122-0.356-0.247-0.41-0.371c0.021,0,0.04-0.008,0.066-0.026c0.027-0.019,0.05-0.025,0.066-0.025
		c0.019-0.159-0.074-0.36-0.278-0.608c-0.202-0.246-0.286-0.423-0.25-0.528c-0.143-0.105-0.267-0.313-0.371-0.622
		c-0.105-0.31-0.194-0.508-0.265-0.597c-0.071-0.104-0.159-0.198-0.265-0.278c-0.106-0.078-0.238-0.167-0.396-0.264
		c-0.159-0.098-0.267-0.162-0.318-0.198c-0.036-0.018-0.105-0.098-0.211-0.238c-0.584-0.705-0.76-1.083-0.53-1.138
		c-0.229,0.055-0.42-0.119-0.569-0.518c-0.15-0.396-0.197-0.7-0.145-0.912l-0.055-0.026c0.019-0.069,0.026-0.277,0.026-0.622
		s0.021-0.655,0.065-0.938c0.045-0.282,0.13-0.424,0.251-0.424c-0.122,0.019-0.216-0.093-0.276-0.329
		c-0.063-0.239-0.067-0.403-0.016-0.49c0.019-0.054,0.098-0.019,0.238,0.105c0.142,0.123,0.223,0.201,0.237,0.236
		c0.229-0.123,0.32-0.28,0.267-0.477c-0.036-0.069-0.222-0.255-0.558-0.556c-0.759-0.494-1.146-0.731-1.162-0.715
		c0.104-0.194,0.078-0.362-0.081-0.504c-0.176,0.107-0.276,0.132-0.304,0.08c-0.025-0.054-0.05-0.149-0.065-0.292
		c-0.02-0.142-0.062-0.222-0.133-0.236c-0.088-0.019-0.193-0.092-0.316-0.213c1.567-2.506,3.642-4.465,6.219-5.877
		c0.104-0.017,0.299-0.025,0.583-0.025c0.141,0.018,0.271,0.063,0.396,0.132c0.125,0.071,0.252,0.169,0.385,0.291
		c0.132,0.124,0.233,0.211,0.305,0.265c0.036-0.105-0.008-0.265-0.133-0.476c0.036-0.106,0.229-0.212,0.582-0.317
		c0.406-0.055,0.672-0.045,0.796,0.025c-0.104-0.157-0.282-0.378-0.528-0.66l-0.133,0.132c-0.143-0.124-0.512-0.063-1.112,0.187
		c-0.033,0.018-0.122,0.066-0.264,0.145c-0.142,0.08-0.256,0.137-0.344,0.174c-0.105,0.034-0.211,0.043-0.317,0.026
		c0.846-0.46,1.676-0.821,2.487-1.086c0.052,0.035,0.141,0.109,0.265,0.226c0.123,0.114,0.22,0.198,0.289,0.25
		c-0.053-0.035-0.086-0.018-0.104,0.055c-0.071,0.212-0.071,0.389,0,0.528c0.088,0.123,0.206,0.193,0.356,0.211
		c0.15,0.02,0.33,0.009,0.542-0.024c0.212-0.035,0.354-0.055,0.426-0.055l0.266,0.026c0.563,0.053,0.783,0,0.66-0.158
		c0.054,0.07,0.113,0.216,0.186,0.437c0.07,0.223,0.148,0.377,0.238,0.465c0.089-0.071,0.105-0.194,0.052-0.37
		c-0.052-0.176-0.052-0.301,0-0.371c0.019-0.036,0.072-0.07,0.16-0.104c0.089-0.035,0.189-0.076,0.305-0.12s0.189-0.075,0.226-0.093
		c0.105-0.071,0.034-0.193-0.213-0.37c-0.033-0.02-0.108-0.044-0.223-0.079c-0.115-0.034-0.218-0.071-0.306-0.106
		c-0.09-0.035-0.182-0.084-0.277-0.146c-0.096-0.063-0.141-0.134-0.133-0.212c0.009-0.08,0.058-0.184,0.145-0.306
		c0.106-0.089,0.279-0.123,0.518-0.104c0.237,0.018,0.42,0.062,0.543,0.132c0.478,0.265,0.547,0.503,0.213,0.716
		c0.175,0.017,0.388,0.087,0.633,0.211c0.247,0.125,0.345,0.257,0.292,0.397c0.143-0.266,0.283-0.397,0.424-0.397
		c0.089,0.02,0.172,0.138,0.251,0.357c0.08,0.22,0.128,0.339,0.146,0.356c0.142,0.195,0.281,0.238,0.425,0.132
		c0.14-0.104,0.285-0.26,0.438-0.462c0.148-0.204,0.232-0.296,0.25-0.277c-0.177-0.069-0.193-0.141-0.053-0.211
		c0.265-0.159,0.503-0.203,0.713-0.134c0.054,0.036,0.125,0.117,0.21,0.24c0.16,0.316,0.134,0.468-0.078,0.448
		c0.16,0.143,0.225,0.318,0.199,0.531c-0.025,0.211-0.165,0.308-0.411,0.291c-0.089,0-0.215-0.046-0.385-0.133
		c-0.167-0.09-0.295-0.138-0.383-0.146c-0.09-0.009-0.212,0.039-0.372,0.146c-0.069,0.088-0.163,0.237-0.277,0.449
		c-0.113,0.213-0.217,0.363-0.305,0.45c-0.265,0.265-0.705,0.361-1.323,0.291c0.055,0,0.05,0.053-0.014,0.159
		c-0.062,0.105-0.146,0.225-0.251,0.356s-0.168,0.207-0.188,0.226c-0.157,0.177-0.264,0.38-0.315,0.608
		c0,0.035-0.009,0.154-0.026,0.357c-0.02,0.201-0.054,0.356-0.105,0.463c0.212-0.053,0.38,0.054,0.504,0.318
		c0.104,0.247,0.104,0.38,0,0.396c0.582-0.089,1.094-0.052,1.535,0.106c0.634,0.229,0.999,0.458,1.085,0.688
		c0.104-0.158,0.359-0.169,0.767-0.025c0.16,0.087,0.3,0.353,0.425,0.792c0.07,0.266,0.19,0.494,0.357,0.688
		c0.168,0.194,0.349,0.246,0.542,0.159l0.08-0.054c0.068-0.035,0.129-0.067,0.172-0.094c0.044-0.024,0.092-0.061,0.146-0.104
		c0.052-0.045,0.082-0.084,0.092-0.119c0.009-0.035-0.005-0.071-0.04-0.104c-0.123-0.105-0.214-0.253-0.277-0.438
		c-0.061-0.186-0.048-0.35,0.041-0.489c0.052-0.07,0.193-0.177,0.422-0.318c0.229-0.142,0.372-0.281,0.425-0.424
		c0.071-0.229-0.018-0.419-0.266-0.568c-0.246-0.149-0.369-0.285-0.369-0.41c0-0.089,0.057-0.194,0.171-0.318
		c0.114-0.122,0.163-0.237,0.146-0.344c0-0.054-0.032-0.164-0.095-0.33c-0.061-0.169-0.097-0.292-0.105-0.37
		c-0.01-0.08,0.031-0.173,0.12-0.278c0.123-0.07,0.414-0.065,0.874,0.015c0.458,0.079,0.759,0.162,0.898,0.251
		c0.055,0.035,0.168,0.088,0.345,0.159c0.177,0.068,0.331,0.145,0.464,0.225c0.133,0.079,0.208,0.154,0.224,0.226h-0.131
		c0.122,0.104,0.198,0.229,0.226,0.371c0.024,0.142-0.04,0.246-0.199,0.316c0.104-0.017,0.246,0.01,0.424,0.079
		c0.281,0.106,0.29,0.205,0.025,0.291c0.054-0.018,0.129-0.035,0.226-0.053c0.096-0.018,0.171-0.044,0.225-0.08
		c0.034-0.018,0.079-0.047,0.133-0.092c0.055-0.044,0.094-0.071,0.119-0.079c0.026-0.01,0.066-0.02,0.119-0.026
		c0.055-0.009,0.106,0.004,0.158,0.039c0.021,0,0.058-0.044,0.12-0.131c0.06-0.089,0.127-0.177,0.197-0.267
		c0.069-0.088,0.132-0.132,0.187-0.132c0.052,0,0.101,0.022,0.146,0.066c0.044,0.044,0.079,0.092,0.104,0.145
		c0.026,0.055,0.055,0.111,0.08,0.174c0.026,0.061,0.049,0.109,0.066,0.146c0.034,0.089,0.118,0.182,0.251,0.278
		c0.132,0.098,0.215,0.189,0.249,0.277c0.02,0.054,0.055,0.186,0.105,0.396c0.055,0.212,0.125,0.357,0.212,0.437
		c0.087,0.08,0.221,0.146,0.396,0.198c0.036,0.019,0.116,0.009,0.239-0.025c0.123-0.035,0.225-0.045,0.305-0.026
		c0.079,0.018,0.118,0.088,0.118,0.212c0.104-0.106,0.159-0.177,0.159-0.212c0.019,0.229,0.073,0.415,0.172,0.555
		c0.098,0.143,0.25,0.204,0.462,0.187l-0.052,0.583c-0.055,0.088-0.186,0.153-0.396,0.197s-0.345,0.084-0.396,0.118
		c-0.054,0.02-0.182,0.125-0.386,0.319c-0.203,0.193-0.285,0.309-0.25,0.344c-0.3-0.336-0.749-0.435-1.349-0.292
		c-0.67,0.106-1.13,0.212-1.378,0.317c-0.28,0.142-0.477,0.273-0.581,0.396c-0.02,0.02-0.049,0.078-0.093,0.186
		c-0.045,0.104-0.089,0.203-0.133,0.29c-0.046,0.088-0.084,0.133-0.118,0.133c0.104-0.02,0.225-0.103,0.355-0.252
		c0.133-0.149,0.217-0.233,0.251-0.251c0.459-0.3,0.838-0.405,1.14-0.314c0.391,0.105,0.449,0.246,0.186,0.423
		c-0.034,0.035-0.127,0.05-0.277,0.04c-0.148-0.009-0.251-0.005-0.304,0.014c0.16,0.035,0.29,0.084,0.396,0.146
		c0.105,0.063,0.134,0.146,0.079,0.252c0.283,0.158,0.335,0.336,0.16,0.529c-0.23,0.229-0.503,0.326-0.819,0.29
		c0.054,0,0.054,0.036,0,0.104l-0.45,0.292c-0.035,0.019-0.151,0.063-0.345,0.134c-0.195,0.069-0.327,0.149-0.396,0.235
		c-0.053,0.071-0.079,0.178-0.079,0.319s-0.01,0.247-0.026,0.317c-0.019,0.071-0.09,0.089-0.211,0.054
		c-0.054,0.105-0.217,0.189-0.489,0.252c-0.273,0.061-0.454,0.154-0.544,0.278c0.105,0.142,0.098,0.281-0.025,0.422
		c-0.212,0.177-0.397,0.159-0.556-0.054c-0.087,0.035-0.154,0.124-0.197,0.267c-0.046,0.141-0.111,0.237-0.199,0.291
		c0.124,0.192,0.105,0.336-0.054,0.424c0.019,0,0.058,0.018,0.119,0.052c0.061,0.036,0.128,0.08,0.198,0.133
		c0.07,0.054,0.113,0.079,0.132,0.079c-0.071,0.158-0.169,0.237-0.29,0.237c0.104,0.283-0.026,0.592-0.396,0.925
		c-0.071,0.072-0.182,0.145-0.33,0.212c-0.151,0.071-0.287,0.129-0.411,0.173s-0.193,0.075-0.212,0.093
		c-0.177,0.16-0.31,0.321-0.396,0.489c-0.088,0.168-0.102,0.331-0.039,0.49c0.061,0.159,0.225,0.266,0.488,0.318l0.026,0.211v0.476
		l0.025,0.211c0.019,0.125,0.032,0.235,0.04,0.333c0.009,0.099,0.009,0.221,0,0.37c-0.008,0.149-0.049,0.234-0.12,0.251
		c-0.069,0.02-0.167,0-0.289-0.052c-0.143-0.072-0.312-0.46-0.505-1.167c-0.035-0.175-0.141-0.387-0.316-0.635
		c-0.091,0.088-0.165,0.146-0.226,0.172c-0.063,0.027-0.106,0.032-0.132,0.014c-0.026-0.018-0.076-0.058-0.146-0.118
		c-0.071-0.063-0.132-0.11-0.186-0.146c-0.09-0.051-0.244-0.095-0.466-0.13c-0.219-0.037-0.355-0.081-0.408-0.133
		c-0.425,0.316-0.681,0.236-0.769-0.238c-0.036,0.088-0.031,0.208,0.014,0.355c0.045,0.15,0.066,0.234,0.066,0.253
		c-0.125,0.229-0.317,0.246-0.582,0.054c-0.104-0.105-0.35-0.12-0.729-0.04s-0.631,0.094-0.756,0.04
		c0.021,0,0.056,0.025,0.106,0.079c0.054,0.034,0.09,0.061,0.106,0.078c-0.021,0.071-0.047,0.122-0.08,0.158
		c-0.036,0.036-0.07,0.048-0.106,0.039c-0.035-0.008-0.074-0.008-0.118,0c-0.045,0.009-0.085,0.022-0.119,0.041
		c-0.07,0.051-0.159,0.145-0.265,0.275c-0.104,0.133-0.186,0.218-0.239,0.253c0.105,0.282,0.154,0.499,0.146,0.646
		c-0.01,0.15-0.036,0.373-0.08,0.663c-0.043,0.29-0.066,0.523-0.066,0.7c0,0.281,0.085,0.609,0.251,0.98
		c0.17,0.37,0.366,0.625,0.598,0.768c0.124,0.071,0.335,0.114,0.635,0.131c0.3,0.021,0.511,0,0.636-0.051
		c0.104-0.054,0.185-0.115,0.237-0.186c0.054-0.071,0.096-0.175,0.131-0.306c0.037-0.133,0.063-0.226,0.081-0.276
		c0.124-0.337,0.354-0.514,0.687-0.53c0.214-0.018,0.366,0.006,0.466,0.066c0.098,0.063,0.137,0.146,0.119,0.252
		c-0.019,0.104-0.054,0.216-0.105,0.331c-0.053,0.114-0.119,0.242-0.198,0.385c-0.079,0.142-0.129,0.247-0.146,0.317
		c-0.035,0.142-0.066,0.339-0.094,0.597c-0.025,0.256-0.048,0.409-0.065,0.463c0.035,0.018,0.167,0.024,0.396,0.024
		c0-0.033,0.015-0.093,0.041-0.172c0.024-0.08,0.039-0.127,0.039-0.146c0.087,0.142,0.229,0.22,0.423,0.237
		c0.195,0.02,0.335-0.054,0.426-0.211c0.033,0.053,0.141,0.187,0.317,0.396c0.177,0.211,0.272,0.388,0.29,0.528
		c0.021,0.07,0.054,0.187,0.105,0.345c0.053,0.158,0.07,0.269,0.055,0.332c-0.019,0.06-0.106,0.092-0.266,0.092
		c-0.07,0-0.115,0.026-0.133,0.08c-0.019,0.054-0.019,0.118,0,0.197c0.02,0.078,0.041,0.154,0.066,0.227
		c0.024,0.07,0.06,0.146,0.106,0.227c0.043,0.077,0.063,0.126,0.063,0.144c0.318,0.582,0.75,0.74,1.298,0.477
		c0,0.513-0.124,0.793-0.372,0.848C701.576,363.648,701.418,363.561,701.241,363.349z M701.637,369.328
		c-0.033-0.177-0.054-0.316-0.053-0.423c-0.018-0.144,0.046-0.331,0.186-0.568c0.142-0.239,0.213-0.42,0.213-0.542
		c-0.283-0.072-0.39-0.303-0.319-0.688c0.036-0.266,0.291-0.617,0.769-1.06c0.336-0.301,0.439-0.724,0.318-1.271
		c-0.054-0.229-0.097-0.565-0.132-1.005c-0.035-0.441-0.071-0.75-0.106-0.928c0,0.054,0.083,0.104,0.252,0.146
		c0.167,0.043,0.271,0.103,0.305,0.173c0.034-0.054,0.08-0.15,0.132-0.292c0.055-0.142,0.105-0.246,0.158-0.318
		c0.036-0.054,0.109-0.118,0.226-0.197c0.116-0.08,0.189-0.129,0.227-0.146c0.034-0.017,0.113-0.074,0.236-0.17
		c0.124-0.097,0.227-0.172,0.308-0.226c0.077-0.053,0.185-0.094,0.315-0.118c0.132-0.026,0.227,0.014,0.279,0.118
		c0.088,0.105,0.068,0.269-0.055,0.489c-0.123,0.222-0.123,0.375,0,0.463c0.02-0.053,0.034-0.168,0.055-0.345
		c0.018-0.176,0.068-0.309,0.158-0.396c0.104-0.105,0.207-0.168,0.305-0.186c0.097-0.019,0.185-0.005,0.265,0.039
		c0.078,0.044,0.17,0.104,0.277,0.187c0.106,0.079,0.202,0.128,0.291,0.146c0.265,0.088,0.582,0.281,0.954,0.582
		c-0.02-0.019-0.02-0.039,0-0.066c0.017-0.025,0.052-0.053,0.104-0.077c0.055-0.027,0.103-0.055,0.146-0.08
		c0.043-0.026,0.091-0.048,0.144-0.066l0.08-0.026c0.123,0,0.211-0.007,0.265-0.024c0.054-0.02,0.13,0,0.226,0.052
		c0.095,0.054,0.163,0.094,0.198,0.119c0.035,0.027,0.098,0.074,0.185,0.146c0.088,0.071,0.15,0.125,0.186,0.158
		c0.055,0.035,0.148,0.098,0.292,0.187c0.14,0.089,0.25,0.159,0.33,0.211c0.079,0.053,0.149,0.132,0.212,0.236
		c0.061,0.108,0.083,0.223,0.064,0.347c0.105,0.019,0.317,0.089,0.634,0.211c0.057,0.036,0.164,0.065,0.332,0.092
		s0.279,0.067,0.33,0.12C708.368,367.025,705.271,368.693,701.637,369.328z"/>
</g>
<g>
	<g>
		<path fill="#FF8A8A" d="M454.498,350.976c20.963,0,38.688,8.655,39.287,19.017c-0.6,10.357-18.324,19.016-39.287,19.016
			c-20.962,0-38.687-8.655-39.286-19.016C415.813,359.63,433.535,350.976,454.498,350.976z"/>
		<path fill="#FF8A8A" d="M493.843,426.578c0,10.598-18.016,19.55-39.346,19.55c-21.327,0-39.343-8.952-39.343-19.55v-9.351
			c6.735,8.089,21.633,13.589,39.343,13.589c17.711,0,32.608-5.501,39.346-13.589V426.578L493.843,426.578z"/>
		<path fill="#FF8A8A" d="M493.843,407.404c0,10.598-18.016,19.552-39.346,19.552c-21.327,0-39.343-8.954-39.343-19.552v-9.739
			c6.735,8.087,21.633,13.587,39.343,13.587c17.711,0,32.608-5.503,39.346-13.587V407.404L493.843,407.404z"/>
		<path fill="#FF8A8A" d="M493.843,387.838c0,10.6-18.016,19.551-39.346,19.551c-21.327,0-39.343-8.951-39.343-19.551v-8.556
			c6.735,8.088,21.633,13.584,39.343,13.584c17.711,0,32.608-5.499,39.346-13.584V387.838z"/>
	</g>
</g>
<g>
	<path fill="#561717" d="M79.848,460.636h3.598v1.399h-1.989v2.124h1.867v1.339h-1.867v3.413h-1.608L79.848,460.636L79.848,460.636z
		"/>
	<path fill="#561717" d="M86.267,460.636v8.275h-1.608v-8.275H86.267z"/>
	<path fill="#561717" d="M87.701,460.636h1.609v6.913h2.112v1.362h-3.721V460.636z"/>
	<path fill="#561717" d="M95.853,465.276h-1.878v2.234H96.1v1.399h-3.733v-8.276h3.598v1.399h-1.989v1.902h1.878L95.853,465.276
		L95.853,465.276z"/>
</g>
<g>
	<path fill="#561717" d="M152.254,380.286c-0.356,0.147-1.105,0.295-1.707,0.295c-0.958,0-1.682-0.271-2.222-0.822
		c-0.712-0.7-1.094-1.915-1.068-3.34c0.037-3.009,1.744-4.261,3.524-4.261c0.626,0,1.08,0.124,1.339,0.246l-0.27,1.388
		c-0.245-0.111-0.552-0.186-0.945-0.186c-1.105,0-1.978,0.762-1.978,2.896c0,2.002,0.773,2.714,1.535,2.714
		c0.147,0,0.258-0.012,0.319-0.048v-1.99h-0.75v-1.313h2.223V380.286L152.254,380.286z"/>
	<path fill="#561717" d="M155.063,372.23v8.275h-1.608v-8.275H155.063z"/>
	<path fill="#561717" d="M157.394,373.716h-1.461v-1.485h4.543v1.485h-1.473v6.791h-1.608L157.394,373.716L157.394,373.716z"/>
	<path fill="#561717" d="M164.586,378.617l-0.368,1.89h-1.56l1.792-8.275h1.928l1.609,8.275h-1.572l-0.344-1.89H164.586z
		 M165.924,377.363l-0.27-1.73c-0.086-0.504-0.197-1.34-0.27-1.88h-0.037c-0.086,0.552-0.208,1.398-0.294,1.88l-0.307,1.73H165.924z
		"/>
	<path fill="#561717" d="M168.894,372.354c0.405-0.098,0.994-0.159,1.633-0.159c1.044,0,1.769,0.245,2.296,0.735
		c0.712,0.642,1.081,1.733,1.081,3.34c0,1.672-0.43,2.862-1.154,3.5c-0.565,0.528-1.376,0.8-2.517,0.8
		c-0.516,0-1.019-0.05-1.339-0.086V372.354L168.894,372.354z M170.502,379.23c0.085,0.023,0.196,0.023,0.282,0.023
		c0.773,0,1.449-0.762,1.449-3.046c0-1.693-0.442-2.727-1.412-2.727c-0.11,0-0.221,0-0.319,0.036V379.23z"/>
	<path fill="#561717" d="M174.919,372.354c0.406-0.098,0.995-0.159,1.633-0.159c1.044,0,1.769,0.245,2.296,0.735
		c0.712,0.642,1.081,1.733,1.081,3.34c0,1.672-0.43,2.862-1.154,3.5c-0.565,0.528-1.376,0.8-2.518,0.8
		c-0.515,0-1.019-0.05-1.339-0.086L174.919,372.354L174.919,372.354z M176.528,379.23c0.086,0.023,0.197,0.023,0.282,0.023
		c0.773,0,1.449-0.762,1.449-3.046c0-1.693-0.441-2.727-1.412-2.727c-0.11,0-0.221,0-0.319,0.036V379.23z"/>
</g>
<g>
	<path fill="#561717" d="M534.401,380.286c-0.357,0.147-1.104,0.295-1.707,0.295c-0.959,0-1.684-0.271-2.224-0.822
		c-0.712-0.7-1.093-1.915-1.068-3.34c0.037-3.009,1.745-4.261,3.524-4.261c0.625,0,1.079,0.124,1.339,0.246l-0.271,1.388
		c-0.245-0.111-0.553-0.186-0.945-0.186c-1.104,0-1.978,0.762-1.978,2.896c0,2.002,0.771,2.714,1.534,2.714
		c0.146,0,0.258-0.012,0.319-0.048v-1.99h-0.749v-1.313h2.224L534.401,380.286L534.401,380.286z"/>
	<path fill="#561717" d="M537.21,372.23v8.275h-1.606v-8.275H537.21z"/>
	<path fill="#561717" d="M539.542,373.716h-1.461v-1.485h4.544v1.485h-1.474v6.791h-1.608L539.542,373.716L539.542,373.716z"/>
	<path fill="#561717" d="M545.42,372.354c0.454-0.098,1.067-0.159,1.683-0.159c0.957,0,1.718,0.146,2.246,0.64
		c0.49,0.441,0.711,1.117,0.711,1.816c0,0.896-0.27,1.534-0.698,1.989c-0.516,0.553-1.338,0.799-2.016,0.799
		c-0.109,0-0.207,0-0.317-0.014v3.083h-1.608V372.354L545.42,372.354z M547.028,376.124c0.086,0.013,0.171,0.013,0.27,0.013
		c0.813,0,1.167-0.578,1.167-1.351c0-0.727-0.295-1.289-1.044-1.289c-0.146,0-0.295,0.023-0.393,0.062V376.124z"/>
	<path fill="#561717" d="M552.588,372.23v5.379c0,1.216,0.356,1.584,0.786,1.584c0.467,0,0.799-0.331,0.799-1.584v-5.379h1.607
		v5.097c0,2.124-0.812,3.279-2.396,3.279c-1.73,0-2.406-1.203-2.406-3.267v-5.108L552.588,372.23L552.588,372.23z"/>
	<path fill="#561717" d="M556.98,378.862c0.33,0.185,0.908,0.317,1.362,0.317c0.748,0,1.13-0.393,1.13-0.934
		c0-0.602-0.367-0.896-1.067-1.35c-1.13-0.688-1.562-1.562-1.562-2.309c0-1.326,0.885-2.433,2.604-2.433
		c0.553,0,1.067,0.16,1.301,0.295l-0.257,1.388c-0.234-0.146-0.59-0.283-1.044-0.283c-0.688,0-1.021,0.418-1.021,0.848
		c0,0.504,0.245,0.763,1.13,1.303c1.105,0.663,1.498,1.498,1.498,2.37c0,1.51-1.116,2.505-2.727,2.505
		c-0.662,0-1.302-0.171-1.584-0.33L556.98,378.862z"/>
	<path fill="#561717" d="M563.608,372.23v3.315h1.683v-3.315h1.607v8.275h-1.607v-3.462h-1.683v3.462h-1.607v-8.275H563.608z"/>
	<path fill="#561717" d="M572.483,380.605c-1.88,0-2.617-1.988-2.617-4.263c0-2.259,0.896-4.212,2.737-4.212
		c1.989,0,2.555,2.198,2.555,4.09c0,3.118-1.105,4.385-2.664,4.385H572.483z M572.544,379.206c0.688,0,0.946-1.229,0.946-2.91
		c0-1.462-0.223-2.764-0.958-2.764c-0.712,0-1.008,1.302-0.996,2.801c-0.023,1.646,0.283,2.873,0.996,2.873H572.544L572.544,379.206
		z"/>
	<path fill="#561717" d="M576.177,372.354c0.504-0.098,1.143-0.159,1.755-0.159c0.886,0,1.684,0.123,2.21,0.613
		c0.505,0.455,0.662,1.008,0.662,1.72c0,0.884-0.44,1.682-1.275,2.063v0.024c0.564,0.232,0.848,0.749,1.007,1.646
		c0.159,0.922,0.381,1.94,0.528,2.246h-1.684c-0.108-0.232-0.293-1.066-0.417-1.989c-0.146-1.018-0.405-1.313-0.933-1.313h-0.246
		v3.303h-1.607V372.354L576.177,372.354z M577.784,375.964h0.296c0.698,0,1.092-0.563,1.092-1.289c0-0.712-0.282-1.204-0.995-1.228
		c-0.146,0-0.307,0.013-0.394,0.05L577.784,375.964L577.784,375.964z"/>
	<path fill="#561717" d="M583.553,372.23v8.275h-1.607v-8.275H583.553z"/>
	<path fill="#561717" d="M589.581,380.286c-0.357,0.147-1.106,0.295-1.707,0.295c-0.96,0-1.683-0.271-2.223-0.822
		c-0.714-0.7-1.095-1.915-1.07-3.34c0.038-3.009,1.745-4.261,3.526-4.261c0.625,0,1.078,0.124,1.338,0.246l-0.271,1.388
		c-0.246-0.111-0.553-0.186-0.945-0.186c-1.104,0-1.978,0.762-1.978,2.896c0,2.002,0.774,2.714,1.535,2.714
		c0.146,0,0.257-0.012,0.319-0.048v-1.99h-0.748v-1.313h2.223L589.581,380.286L589.581,380.286z"/>
	<path fill="#561717" d="M592.389,372.23v8.275h-1.606v-8.275H592.389z"/>
	<path fill="#561717" d="M593.824,380.507v-8.275h1.474l1.276,3.255c0.258,0.626,0.649,1.693,0.885,2.405h0.023
		c-0.05-0.857-0.159-2.308-0.159-3.831v-1.828h1.412v8.276h-1.475l-1.264-3.156c-0.283-0.688-0.651-1.742-0.848-2.479h-0.024
		c0.05,0.837,0.11,2.112,0.11,3.771v1.866h-1.412L593.824,380.507L593.824,380.507z"/>
</g>
<g>
	<path fill="#561717" d="M429.771,460.636h1.606v6.913h2.113v1.362h-3.722v-8.275H429.771z"/>
	<path fill="#561717" d="M436.313,469.01c-1.878,0-2.615-1.988-2.615-4.261c0-2.26,0.896-4.213,2.737-4.213
		c1.988,0,2.555,2.199,2.555,4.09c0,3.119-1.105,4.384-2.664,4.384H436.313L436.313,469.01z M436.374,467.61
		c0.688,0,0.946-1.229,0.946-2.91c0-1.461-0.223-2.765-0.958-2.765c-0.712,0-1.009,1.304-0.996,2.802
		c-0.022,1.646,0.283,2.873,0.996,2.873H436.374L436.374,467.61z"/>
	<path fill="#561717" d="M443.973,468.789c-0.232,0.11-0.688,0.196-1.239,0.196c-2.125,0-3.133-1.732-3.133-4.089
		c0-3.12,1.732-4.336,3.342-4.336c0.563,0,0.957,0.123,1.116,0.222l-0.271,1.351c-0.183-0.087-0.394-0.16-0.747-0.16
		c-0.909,0-1.732,0.786-1.732,2.838c0,1.977,0.749,2.751,1.732,2.751c0.27,0,0.577-0.063,0.772-0.123L443.973,468.789z"/>
	<path fill="#561717" d="M446.363,467.021l-0.368,1.891h-1.561l1.792-8.275h1.929l1.608,8.275h-1.571l-0.345-1.891H446.363z
		 M447.702,465.769l-0.271-1.731c-0.086-0.503-0.195-1.338-0.27-1.879h-0.037c-0.086,0.552-0.209,1.398-0.295,1.879l-0.307,1.731
		H447.702z"/>
	<path fill="#561717" d="M450.671,460.636h1.608v6.913h2.111v1.362h-3.721L450.671,460.636L450.671,460.636z"/>
	<path fill="#561717" d="M457.286,460.758c0.504-0.098,1.143-0.159,1.756-0.159c0.884,0,1.683,0.123,2.209,0.613
		c0.505,0.454,0.663,1.007,0.663,1.72c0,0.885-0.442,1.682-1.276,2.063v0.023c0.564,0.233,0.849,0.75,1.007,1.646
		c0.159,0.922,0.381,1.94,0.527,2.247h-1.682c-0.11-0.233-0.295-1.068-0.417-1.989c-0.148-1.019-0.406-1.313-0.935-1.313h-0.244
		v3.303h-1.608V460.758L457.286,460.758z M458.895,464.369h0.296c0.697,0,1.093-0.565,1.093-1.289c0-0.713-0.283-1.204-0.995-1.229
		c-0.147,0-0.307,0.015-0.395,0.051L458.895,464.369L458.895,464.369z"/>
	<path fill="#561717" d="M466.542,465.276h-1.88v2.234h2.125v1.399h-3.732v-8.276h3.6v1.399h-1.99v1.902h1.88L466.542,465.276
		L466.542,465.276z"/>
	<path fill="#561717" d="M467.89,460.758c0.456-0.098,1.069-0.159,1.684-0.159c0.957,0,1.719,0.147,2.247,0.64
		c0.49,0.441,0.712,1.117,0.712,1.815c0,0.896-0.271,1.536-0.699,1.99c-0.517,0.552-1.34,0.799-2.015,0.799
		c-0.11,0-0.209,0-0.32-0.013v3.081h-1.607L467.89,460.758L467.89,460.758z M469.498,464.527c0.087,0.014,0.173,0.014,0.271,0.014
		c0.813,0,1.167-0.578,1.167-1.351c0-0.726-0.295-1.289-1.043-1.289c-0.146,0-0.296,0.022-0.395,0.061V464.527z"/>
	<path fill="#561717" d="M475.708,469.01c-1.878,0-2.616-1.988-2.616-4.261c0-2.26,0.896-4.213,2.738-4.213
		c1.989,0,2.554,2.199,2.554,4.09c0,3.119-1.104,4.384-2.664,4.384H475.708L475.708,469.01z M475.77,467.61
		c0.688,0,0.946-1.229,0.946-2.91c0-1.461-0.221-2.765-0.958-2.765c-0.713,0-1.008,1.304-0.995,2.802
		c-0.023,1.646,0.281,2.873,0.995,2.873H475.77L475.77,467.61z"/>
</g>
<g>
	<path fill="#561717" d="M239.709,467.267c0.331,0.186,0.908,0.319,1.362,0.319c0.75,0,1.13-0.393,1.13-0.934
		c0-0.603-0.369-0.896-1.068-1.352c-1.13-0.688-1.56-1.56-1.56-2.309c0-1.326,0.885-2.432,2.604-2.432
		c0.552,0,1.068,0.159,1.302,0.296l-0.258,1.388c-0.234-0.147-0.589-0.283-1.044-0.283c-0.688,0-1.02,0.418-1.02,0.849
		c0,0.504,0.246,0.762,1.13,1.302c1.105,0.663,1.499,1.498,1.499,2.37c0,1.51-1.117,2.505-2.726,2.505
		c-0.663,0-1.301-0.171-1.584-0.33L239.709,467.267z"/>
	<path fill="#561717" d="M245.625,462.121h-1.461v-1.486h4.543v1.486h-1.473v6.79h-1.609V462.121L245.625,462.121z"/>
	<path fill="#561717" d="M250.448,467.021l-0.369,1.891h-1.56l1.792-8.275h1.928l1.608,8.275h-1.571l-0.344-1.891H250.448z
		 M251.787,465.769l-0.27-1.731c-0.086-0.503-0.197-1.338-0.27-1.879h-0.037c-0.086,0.552-0.208,1.398-0.294,1.879l-0.307,1.731
		H251.787z"/>
	<path fill="#561717" d="M259.152,468.69c-0.355,0.146-1.105,0.295-1.707,0.295c-0.958,0-1.682-0.271-2.223-0.823
		c-0.712-0.699-1.093-1.915-1.068-3.339c0.037-3.01,1.743-4.261,3.523-4.261c0.627,0,1.082,0.121,1.339,0.243l-0.27,1.39
		c-0.245-0.111-0.552-0.187-0.945-0.187c-1.105,0-1.977,0.764-1.977,2.898c0,2.001,0.773,2.714,1.535,2.714
		c0.147,0,0.257-0.013,0.319-0.049v-1.99h-0.749v-1.313h2.222L259.152,468.69L259.152,468.69z"/>
	<path fill="#561717" d="M261.961,460.636v8.275h-1.609v-8.275H261.961z"/>
	<path fill="#561717" d="M263.396,468.911v-8.275h1.474l1.278,3.254c0.257,0.627,0.65,1.694,0.884,2.407h0.025
		c-0.049-0.859-0.16-2.309-0.16-3.831v-1.829h1.412v8.275h-1.474l-1.265-3.154c-0.282-0.688-0.651-1.743-0.847-2.479h-0.024
		c0.049,0.835,0.11,2.11,0.11,3.77v1.866h-1.413V468.911z"/>
	<path fill="#561717" d="M274.322,468.69c-0.357,0.146-1.105,0.295-1.708,0.295c-0.958,0-1.682-0.271-2.222-0.823
		c-0.712-0.699-1.093-1.915-1.068-3.339c0.037-3.01,1.744-4.261,3.524-4.261c0.626,0,1.08,0.121,1.339,0.243l-0.27,1.39
		c-0.245-0.111-0.552-0.187-0.945-0.187c-1.105,0-1.977,0.764-1.977,2.898c0,2.001,0.773,2.714,1.534,2.714
		c0.147,0,0.258-0.013,0.32-0.049v-1.99h-0.75v-1.313h2.224L274.322,468.69L274.322,468.69z"/>
</g>
<g>
	<path fill="#561717" d="M670.429,460.758c0.504-0.098,1.144-0.159,1.756-0.159c0.885,0,1.683,0.123,2.209,0.613
		c0.506,0.454,0.663,1.007,0.663,1.72c0,0.885-0.44,1.682-1.275,2.063v0.023c0.563,0.233,0.848,0.75,1.007,1.646
		c0.159,0.922,0.38,1.94,0.528,2.247h-1.684c-0.109-0.233-0.295-1.068-0.417-1.989c-0.147-1.019-0.405-1.313-0.933-1.313h-0.246
		v3.303h-1.608V460.758L670.429,460.758z M672.037,464.369h0.295c0.698,0,1.093-0.565,1.093-1.289c0-0.713-0.283-1.204-0.995-1.229
		c-0.146,0-0.307,0.015-0.394,0.051L672.037,464.369L672.037,464.369z"/>
	<path fill="#561717" d="M679.685,465.276h-1.879v2.234h2.124v1.399h-3.731v-8.276h3.599v1.399h-1.99v1.902h1.881L679.685,465.276
		L679.685,465.276z"/>
	<path fill="#561717" d="M686.092,466.014c-0.05-0.786-0.099-1.842-0.087-2.737h-0.022c-0.147,0.884-0.369,1.902-0.528,2.541
		l-0.727,2.96h-1.129l-0.688-2.91c-0.16-0.663-0.381-1.694-0.516-2.591h-0.023c-0.024,0.896-0.087,1.939-0.123,2.763l-0.147,2.873
		h-1.376l0.59-8.276h1.706l0.663,2.996c0.223,1.044,0.431,1.964,0.577,2.897h0.037c0.122-0.92,0.309-1.854,0.517-2.897l0.661-2.996
		h1.695l0.504,8.276h-1.438L686.092,466.014z"/>
	<path fill="#561717" d="M691.061,469.01c-1.877,0-2.614-1.988-2.614-4.261c0-2.26,0.896-4.213,2.737-4.213
		c1.988,0,2.555,2.199,2.555,4.09c0,3.119-1.105,4.384-2.664,4.384H691.061L691.061,469.01z M691.122,467.61
		c0.688,0,0.945-1.229,0.945-2.91c0-1.461-0.222-2.765-0.957-2.765c-0.713,0-1.009,1.304-0.996,2.802
		c-0.023,1.646,0.283,2.873,0.996,2.873H691.122L691.122,467.61z"/>
	<path fill="#561717" d="M695.564,462.121h-1.463v-1.486h4.544v1.486h-1.475v6.79h-1.605L695.564,462.121L695.564,462.121z"/>
	<path fill="#561717" d="M702.979,465.276h-1.88v2.234h2.125v1.399h-3.73v-8.276h3.598v1.399h-1.989v1.902h1.88L702.979,465.276
		L702.979,465.276z"/>
	<path fill="#561717" d="M706.278,460.758c0.503-0.098,1.142-0.159,1.755-0.159c0.885,0,1.683,0.123,2.21,0.613
		c0.504,0.454,0.662,1.007,0.662,1.72c0,0.885-0.441,1.682-1.275,2.063v0.023c0.564,0.233,0.847,0.75,1.006,1.646
		c0.16,0.922,0.38,1.94,0.527,2.247h-1.681c-0.111-0.233-0.296-1.068-0.419-1.989c-0.146-1.019-0.404-1.313-0.934-1.313h-0.245
		v3.303h-1.606V460.758L706.278,460.758z M707.887,464.369h0.295c0.699,0,1.094-0.565,1.094-1.289c0-0.713-0.282-1.204-0.994-1.229
		c-0.148,0-0.309,0.015-0.396,0.051L707.887,464.369L707.887,464.369z"/>
	<path fill="#561717" d="M715.534,465.276h-1.88v2.234h2.126v1.399h-3.732v-8.276h3.599v1.399h-1.99v1.902h1.88L715.534,465.276
		L715.534,465.276z"/>
	<path fill="#561717" d="M716.882,460.758c0.455-0.098,1.068-0.159,1.684-0.159c0.956,0,1.718,0.147,2.245,0.64
		c0.491,0.441,0.713,1.117,0.713,1.815c0,0.896-0.271,1.536-0.699,1.99c-0.517,0.552-1.339,0.799-2.016,0.799
		c-0.109,0-0.209,0-0.319-0.013v3.081h-1.607V460.758L716.882,460.758z M718.49,464.527c0.087,0.014,0.171,0.014,0.271,0.014
		c0.812,0,1.167-0.578,1.167-1.351c0-0.726-0.296-1.289-1.044-1.289c-0.146,0-0.296,0.022-0.394,0.061V464.527z"/>
	<path fill="#561717" d="M724.701,469.01c-1.879,0-2.616-1.988-2.616-4.261c0-2.26,0.896-4.213,2.738-4.213
		c1.988,0,2.554,2.199,2.554,4.09c0,3.119-1.104,4.384-2.663,4.384H724.701L724.701,469.01z M724.763,467.61
		c0.688,0,0.945-1.229,0.945-2.91c0-1.461-0.221-2.765-0.957-2.765c-0.713,0-1.008,1.304-0.996,2.802
		c-0.023,1.646,0.282,2.873,0.996,2.873H724.763L724.763,467.61z"/>
</g>
<g>
	<g>

			<line fill="none" stroke="#777777" stroke-width="6" stroke-miterlimit="10" x1="132.975" y1="398.516" x2="183.667" y2="398.516"/>
		<g>
			<polygon fill="#777777" stroke="#777777" stroke-miterlimit="10" points="203.173,398.917 176.154,409.958 182.566,398.917
				176.154,387.88 			"/>
		</g>
	</g>
</g>
<g>
	<path fill="#561717" d="M339.726,380.286c-0.356,0.147-1.105,0.295-1.707,0.295c-0.958,0-1.682-0.271-2.222-0.822
		c-0.712-0.7-1.094-1.915-1.069-3.34c0.037-3.009,1.745-4.261,3.525-4.261c0.625,0,1.08,0.124,1.339,0.246l-0.271,1.388
		c-0.245-0.111-0.552-0.186-0.945-0.186c-1.105,0-1.978,0.762-1.978,2.896c0,2.002,0.774,2.714,1.535,2.714
		c0.146,0,0.257-0.012,0.319-0.048v-1.99h-0.749v-1.313h2.222L339.726,380.286L339.726,380.286z"/>
	<path fill="#561717" d="M342.535,372.23v8.275h-1.607v-8.275H342.535z"/>
	<path fill="#561717" d="M344.867,373.716h-1.461v-1.485h4.543v1.485h-1.474v6.791h-1.607L344.867,373.716L344.867,373.716z"/>
	<path fill="#561717" d="M354.711,380.385c-0.234,0.109-0.688,0.196-1.24,0.196c-2.125,0-3.131-1.732-3.131-4.089
		c0-3.119,1.732-4.336,3.34-4.336c0.564,0,0.958,0.124,1.117,0.222l-0.271,1.352c-0.184-0.088-0.394-0.159-0.749-0.159
		c-0.909,0-1.732,0.785-1.732,2.836c0,1.977,0.749,2.751,1.732,2.751c0.27,0,0.577-0.063,0.773-0.124L354.711,380.385z"/>
	<path fill="#561717" d="M357.655,380.605c-1.878,0-2.616-1.988-2.616-4.263c0-2.259,0.896-4.212,2.738-4.212
		c1.989,0,2.554,2.198,2.554,4.09c0,3.118-1.105,4.385-2.664,4.385H357.655z M357.717,379.206c0.688,0,0.946-1.229,0.946-2.91
		c0-1.462-0.22-2.764-0.958-2.764c-0.712,0-1.007,1.302-0.996,2.801c-0.024,1.646,0.283,2.873,0.996,2.873H357.717L357.717,379.206z
		"/>
	<path fill="#561717" d="M366.408,377.609c-0.05-0.785-0.099-1.843-0.087-2.738h-0.023c-0.147,0.885-0.369,1.903-0.528,2.542
		l-0.724,2.96h-1.13l-0.688-2.91c-0.16-0.663-0.381-1.695-0.515-2.592h-0.024c-0.024,0.896-0.087,1.939-0.123,2.763l-0.148,2.873
		h-1.376l0.59-8.276h1.707l0.663,2.997c0.221,1.043,0.43,1.966,0.578,2.897h0.037c0.122-0.921,0.307-1.854,0.515-2.897l0.663-2.997
		h1.694l0.503,8.276h-1.438L366.408,377.609z"/>
	<path fill="#561717" d="M374.226,377.609c-0.049-0.785-0.099-1.843-0.086-2.738h-0.023c-0.147,0.885-0.369,1.903-0.529,2.542
		l-0.724,2.96h-1.13l-0.688-2.91c-0.16-0.663-0.381-1.695-0.515-2.592h-0.024c-0.024,0.896-0.087,1.939-0.123,2.763l-0.147,2.873
		h-1.376l0.589-8.276h1.708l0.662,2.997c0.221,1.043,0.43,1.966,0.578,2.897h0.037c0.123-0.921,0.307-1.854,0.515-2.897l0.663-2.997
		h1.695l0.503,8.276h-1.437L374.226,377.609z"/>
	<path fill="#561717" d="M378.593,372.23v8.275h-1.607v-8.275H378.593z"/>
	<path fill="#561717" d="M380.924,373.716h-1.461v-1.485h4.543v1.485h-1.474v6.791h-1.607L380.924,373.716L380.924,373.716z"/>
</g>
<g>
	<g>

			<line fill="none" stroke="#777777" stroke-width="6" stroke-miterlimit="10" x1="328.504" y1="398.516" x2="380.102" y2="398.516"/>
		<g>
			<polygon fill="#777777" stroke="#777777" stroke-miterlimit="10" points="398.861,398.917 371.843,409.958 378.255,398.917
				371.843,387.88 			"/>
		</g>
	</g>
</g>
<g>
	<g>

			<line fill="none" stroke="#777777" stroke-width="6" stroke-miterlimit="10" x1="506.834" y1="398.516" x2="512.266" y2="398.516"/>

			<line fill="none" stroke="#777777" stroke-width="6" stroke-miterlimit="10" stroke-dasharray="11,11" x1="522.224" y1="398.516" x2="615.462" y2="398.516"/>

			<line fill="none" stroke="#777777" stroke-width="6" stroke-miterlimit="10" x1="620.894" y1="398.516" x2="626.325" y2="398.516"/>
		<g>
			<polygon fill="#777777" stroke="#777777" stroke-miterlimit="10" points="645.313,398.917 618.293,409.958 624.705,398.917
				618.293,387.88 			"/>
		</g>
	</g>
</g>
<g>
	<g>
		<path fill="#FF8A8A" d="M257.704,406.928c5.463,0,10.664-0.479,15.444-1.328v-5.673c0-4.027,2.072-7.578,5.205-9.648
			c-6.093,1.543-13.126,2.442-20.648,2.442c-23.059,0-41.745-8.313-41.745-18.582c0,4.285,0,7.149,0,14.208
			C215.963,398.611,234.645,406.928,257.704,406.928z"/>
		<ellipse fill="#FF8A8A" cx="257.704" cy="369.042" rx="41.746" ry="18.581"/>
		<path fill="#FF8A8A" d="M299.45,374.139c0,5.714-5.799,10.818-14.906,14.228c0.058,0,0.116-0.02,0.184-0.02h7.722
			c2.495,0,4.795,0.813,6.69,2.165c0.186-0.713,0.305-1.433,0.305-2.165C299.45,384.573,299.45,380.644,299.45,374.139z"/>
		<path fill="#FF8A8A" d="M253.843,426.142v-6.909c0-2.754,1.002-5.247,2.614-7.238c-22.476-0.295-40.494-8.471-40.494-18.552
			c0,4.285,0,7.148,0,14.206C215.963,417.336,232.599,425.273,253.843,426.142z"/>
		<path fill="#FF8A8A" d="M273.147,438.534h-7.722c-4.864,0-9.02-3.02-10.732-7.278c-21.646-0.683-38.729-8.697-38.729-18.512
			c0,4.286,0,7.149,0,14.208c0,10.265,18.687,18.581,41.746,18.581c5.461,0,10.663-0.479,15.442-1.329L273.147,438.534
			L273.147,438.534z"/>
	</g>
	<path fill="#FF8A8A" d="M311.754,415.37h-15.442v-15.444c0-2.126-1.734-3.859-3.862-3.859h-7.722c-2.126,0-3.86,1.733-3.86,3.859
		v15.444h-15.443c-2.126,0-3.861,1.732-3.861,3.861v7.722c0,2.126,1.734,3.859,3.861,3.859h15.443v15.442
		c0,2.126,1.734,3.86,3.86,3.86h7.722c2.127,0,3.862-1.734,3.862-3.86v-15.442h15.442c2.126,0,3.862-1.733,3.862-3.859v-7.722
		C315.616,417.104,313.88,415.37,311.754,415.37z"/>
</g>
</svg>