<svg version="1.1" id="Layer_1" xmlns="http://www.w3.org/2000/svg" xmlns:xlink="http://www.w3.org/1999/xlink" x="0px" y="0px"
	 width="800px" height="255px" viewBox="0 0 800 255" enable-background="new 0 0 800 255" xml:space="preserve">
<path fill="#FF8A8A" d="M78.674,65.098H27.896c-3.409,0-6.186,2.778-6.186,6.188v88.513c0,3.415,2.777,6.189,6.186,6.189h62.197
	c3.413,0,6.187-2.774,6.187-6.189V84.229L78.674,65.098z M80.134,74.357l7.717,8.387h-7.717V74.357z M91.085,159.8
	c0,0.544-0.447,0.991-0.994,0.991H27.896c-0.547,0-0.99-0.447-0.99-0.991V71.286c0-0.547,0.443-0.99,0.99-0.99h47.04v15.047
	c0,1.433,1.167,2.595,2.6,2.595h13.549V159.8z"/>
<g>
	<g>
		<path fill="#FF8A8A" d="M733.95,62.483c23.157,0,42.738,9.561,43.4,21.005c-0.662,11.444-20.243,21.007-43.4,21.007
			s-42.735-9.561-43.399-21.007C691.215,72.043,710.793,62.483,733.95,62.483z"/>
		<path fill="#FF8A8A" d="M777.414,146c0,11.707-19.901,21.598-43.464,21.598c-23.56,0-43.462-9.891-43.462-21.598v-10.328
			c7.441,8.934,23.897,15.011,43.462,15.011c19.565,0,36.022-6.078,43.464-15.011V146L777.414,146z"/>
		<path fill="#FF8A8A" d="M777.414,124.819c0,11.707-19.901,21.599-43.464,21.599c-23.56,0-43.462-9.892-43.462-21.599v-10.758
			c7.441,8.933,23.897,15.008,43.462,15.008c19.565,0,36.022-6.079,43.464-15.008V124.819L777.414,124.819z"/>
		<path fill="#FF8A8A" d="M777.414,103.204c0,11.708-19.901,21.598-43.464,21.598c-23.56,0-43.462-9.89-43.462-21.598v-9.452
			c7.441,8.935,23.897,15.007,43.462,15.007c19.565,0,36.022-6.075,43.464-15.007V103.204z"/>
	</g>
</g>
<g>
	<path fill="#FFFFFF" d="M753.394,53.067c-2.008-3.44-4.732-6.163-8.171-8.171c-3.441-2.008-7.196-3.011-11.271-3.011
		c-4.073,0-7.832,1.003-11.271,3.011c-3.44,2.007-6.163,4.731-8.171,8.171c-2.008,3.44-3.012,7.197-3.012,11.271
		c0,4.074,1.004,7.83,3.012,11.271c2.008,3.439,4.73,6.163,8.171,8.171c3.439,2.007,7.196,3.011,11.271,3.011
		c4.073,0,7.832-1.004,11.271-3.011c3.438-2.007,6.163-4.731,8.171-8.171s3.011-7.198,3.011-11.271
		C756.404,60.264,755.401,56.506,753.394,53.067z M736.76,76.151c-0.195-0.234-0.264-0.429-0.204-0.585
		c-0.021,0.098-0.088,0.186-0.205,0.263c-0.098-0.117-0.272-0.263-0.527-0.438c-0.253-0.175-0.428-0.321-0.525-0.438
		c-0.039-0.059-0.093-0.142-0.161-0.249c-0.068-0.107-0.155-0.248-0.263-0.425c-0.106-0.174-0.185-0.326-0.234-0.453
		c-0.048-0.126-0.052-0.199-0.014-0.219c-0.371,0.157-0.905,0.049-1.607-0.321c-0.137-0.077-0.341-0.283-0.615-0.614
		c-0.271-0.332-0.555-0.477-0.848-0.438c-0.097,0.018-0.229,0.053-0.395,0.102c-0.165,0.049-0.306,0.073-0.423,0.073
		s-0.273-0.038-0.469-0.118c-0.155-0.057-0.366-0.17-0.629-0.334c-0.263-0.166-0.443-0.27-0.54-0.307
		c-0.253-0.137-0.381-0.205-0.381-0.205l-0.467-0.233c-0.117-0.059-0.239-0.151-0.365-0.277c-0.128-0.127-0.21-0.259-0.248-0.395
		c-0.039-0.117-0.088-0.351-0.146-0.703c-0.059-0.351-0.137-0.604-0.234-0.76c-0.116-0.194-0.283-0.389-0.496-0.584
		c-0.216-0.195-0.409-0.292-0.586-0.292c0.156,0,0.156-0.131,0-0.396c-0.155-0.263-0.292-0.453-0.409-0.568
		c-0.038-0.04-0.155-0.166-0.351-0.381c-0.195-0.213-0.36-0.399-0.497-0.555c-0.137-0.156-0.254-0.336-0.35-0.542
		c-0.099-0.205-0.117-0.375-0.06-0.511c0.019-0.02,0-0.049-0.058-0.088c-0.059-0.038-0.132-0.078-0.221-0.117
		c-0.086-0.039-0.17-0.073-0.247-0.103c-0.079-0.029-0.137-0.043-0.178-0.043c0.041,0.078,0.084,0.219,0.134,0.425
		c0.047,0.205,0.103,0.356,0.16,0.453c0.039,0.079,0.205,0.361,0.497,0.847c0.508,0.818,0.74,1.423,0.701,1.813
		c-0.116,0.039-0.195,0.019-0.233-0.059c-0.039-0.077-0.069-0.185-0.088-0.321c-0.021-0.137-0.039-0.234-0.059-0.292
		c-0.058-0.117-0.21-0.245-0.454-0.381c-0.243-0.135-0.395-0.272-0.453-0.409c0.021,0,0.044-0.009,0.073-0.03
		c0.031-0.02,0.055-0.029,0.074-0.029c0.02-0.175-0.082-0.398-0.307-0.672c-0.225-0.272-0.317-0.467-0.277-0.584
		c-0.157-0.117-0.294-0.347-0.41-0.687c-0.117-0.342-0.215-0.561-0.292-0.659c-0.079-0.117-0.176-0.219-0.292-0.307
		c-0.117-0.088-0.264-0.185-0.438-0.292c-0.176-0.107-0.293-0.179-0.352-0.219c-0.039-0.019-0.116-0.107-0.233-0.263
		c-0.645-0.78-0.838-1.198-0.585-1.257c-0.253,0.059-0.464-0.131-0.629-0.571c-0.167-0.438-0.22-0.774-0.161-1.008l-0.059-0.029
		c0.02-0.078,0.029-0.307,0.029-0.687c0-0.381,0.025-0.726,0.073-1.039c0.049-0.311,0.143-0.467,0.277-0.467
		c-0.135,0.02-0.237-0.102-0.305-0.365c-0.069-0.263-0.075-0.444-0.017-0.541c0.02-0.059,0.107-0.02,0.264,0.117
		c0.156,0.135,0.244,0.223,0.262,0.263c0.254-0.137,0.353-0.312,0.294-0.527c-0.04-0.077-0.244-0.282-0.615-0.614
		c-0.838-0.546-1.267-0.809-1.285-0.789c0.117-0.215,0.087-0.4-0.088-0.557c-0.195,0.119-0.307,0.146-0.336,0.089
		c-0.029-0.059-0.055-0.166-0.073-0.322c-0.021-0.157-0.068-0.245-0.146-0.263c-0.098-0.02-0.215-0.099-0.351-0.234
		c1.733-2.768,4.023-4.932,6.87-6.492c0.117-0.018,0.33-0.029,0.644-0.029c0.155,0.02,0.301,0.069,0.438,0.146
		c0.138,0.078,0.278,0.186,0.424,0.321c0.146,0.137,0.259,0.234,0.336,0.292c0.04-0.117-0.009-0.292-0.146-0.526
		c0.04-0.117,0.255-0.233,0.643-0.35c0.45-0.059,0.742-0.049,0.879,0.029c-0.116-0.175-0.312-0.419-0.584-0.73l-0.146,0.145
		c-0.157-0.136-0.566-0.068-1.229,0.206c-0.037,0.019-0.135,0.073-0.292,0.16c-0.155,0.088-0.282,0.151-0.379,0.191
		c-0.117,0.038-0.233,0.048-0.351,0.029c0.934-0.507,1.851-0.907,2.748-1.199c0.058,0.039,0.155,0.122,0.292,0.249
		c0.137,0.126,0.243,0.219,0.32,0.277c-0.058-0.039-0.096-0.02-0.116,0.059c-0.078,0.233-0.078,0.429,0,0.584
		c0.098,0.137,0.229,0.214,0.395,0.234s0.365,0.009,0.599-0.029c0.234-0.039,0.391-0.059,0.47-0.059l0.293,0.029
		c0.622,0.059,0.866,0,0.729-0.175c0.059,0.078,0.126,0.239,0.204,0.482c0.079,0.245,0.166,0.415,0.264,0.513
		c0.098-0.079,0.117-0.215,0.058-0.409c-0.058-0.195-0.058-0.332,0-0.41c0.02-0.039,0.079-0.078,0.176-0.117
		c0.098-0.039,0.21-0.083,0.336-0.132c0.128-0.049,0.21-0.083,0.25-0.102c0.117-0.079,0.038-0.214-0.235-0.409
		c-0.038-0.02-0.121-0.049-0.246-0.088c-0.128-0.038-0.24-0.078-0.338-0.117s-0.199-0.093-0.307-0.161
		c-0.106-0.068-0.155-0.146-0.146-0.234c0.01-0.088,0.063-0.201,0.16-0.336c0.117-0.099,0.308-0.137,0.57-0.117
		c0.263,0.019,0.464,0.068,0.6,0.145c0.527,0.293,0.605,0.556,0.235,0.791c0.194,0.018,0.429,0.097,0.7,0.234
		c0.272,0.137,0.381,0.283,0.322,0.438c0.156-0.292,0.312-0.438,0.469-0.438c0.097,0.02,0.189,0.151,0.277,0.394
		s0.141,0.375,0.159,0.395c0.156,0.215,0.312,0.263,0.469,0.146c0.155-0.117,0.315-0.287,0.483-0.511
		c0.164-0.225,0.257-0.327,0.277-0.307c-0.196-0.077-0.215-0.155-0.059-0.233c0.292-0.175,0.556-0.225,0.788-0.146
		c0.059,0.039,0.138,0.128,0.233,0.264c0.176,0.35,0.146,0.517-0.087,0.496c0.176,0.157,0.247,0.352,0.219,0.586
		s-0.181,0.34-0.454,0.322c-0.097,0-0.237-0.049-0.424-0.146c-0.185-0.098-0.326-0.151-0.423-0.161
		c-0.099-0.01-0.235,0.043-0.411,0.161c-0.077,0.097-0.18,0.263-0.307,0.497c-0.126,0.234-0.239,0.4-0.336,0.497
		c-0.292,0.292-0.779,0.4-1.462,0.321c0.06,0,0.054,0.059-0.015,0.176c-0.068,0.117-0.161,0.248-0.277,0.395
		c-0.117,0.146-0.186,0.229-0.206,0.248c-0.175,0.195-0.292,0.42-0.35,0.673c0,0.039-0.009,0.17-0.029,0.395
		c-0.021,0.223-0.059,0.395-0.117,0.512c0.233-0.059,0.419,0.058,0.556,0.351c0.116,0.273,0.116,0.42,0,0.438
		c0.643-0.097,1.208-0.057,1.696,0.118c0.7,0.253,1.103,0.506,1.198,0.76c0.116-0.175,0.399-0.186,0.848-0.029
		c0.176,0.097,0.331,0.389,0.468,0.876c0.079,0.292,0.21,0.546,0.395,0.76c0.186,0.214,0.386,0.272,0.6,0.175l0.087-0.059
		c0.078-0.039,0.143-0.073,0.19-0.102c0.049-0.029,0.102-0.068,0.161-0.117c0.058-0.049,0.092-0.093,0.102-0.131
		c0.009-0.039-0.006-0.079-0.044-0.117c-0.137-0.117-0.237-0.278-0.307-0.482c-0.066-0.205-0.053-0.386,0.045-0.541
		c0.058-0.078,0.214-0.195,0.466-0.352c0.254-0.155,0.411-0.311,0.47-0.468c0.079-0.254-0.02-0.462-0.293-0.628
		s-0.409-0.316-0.409-0.453c0-0.099,0.062-0.215,0.189-0.352c0.127-0.136,0.181-0.263,0.162-0.38c0-0.059-0.035-0.181-0.104-0.365
		c-0.066-0.186-0.106-0.322-0.117-0.409c-0.01-0.088,0.034-0.19,0.132-0.307c0.137-0.078,0.458-0.073,0.966,0.015
		c0.506,0.088,0.838,0.179,0.993,0.278c0.06,0.038,0.186,0.097,0.381,0.175c0.194,0.077,0.365,0.16,0.512,0.249
		c0.146,0.087,0.229,0.17,0.247,0.248h-0.145c0.135,0.117,0.219,0.253,0.248,0.41c0.029,0.156-0.044,0.273-0.219,0.35
		c0.115-0.019,0.271,0.011,0.467,0.088c0.312,0.117,0.321,0.225,0.029,0.321c0.059-0.019,0.142-0.039,0.249-0.059
		c0.105-0.018,0.189-0.048,0.248-0.087c0.038-0.019,0.088-0.053,0.146-0.102c0.06-0.048,0.103-0.079,0.132-0.088
		c0.029-0.009,0.073-0.02,0.132-0.029s0.117,0.005,0.175,0.044c0.021,0,0.062-0.049,0.132-0.146
		c0.066-0.097,0.141-0.194,0.218-0.292c0.078-0.097,0.146-0.146,0.206-0.146c0.058,0,0.111,0.024,0.16,0.073
		c0.048,0.049,0.087,0.102,0.116,0.161c0.029,0.058,0.059,0.122,0.088,0.19c0.029,0.067,0.053,0.122,0.073,0.161
		c0.038,0.098,0.131,0.2,0.277,0.307c0.146,0.108,0.237,0.21,0.276,0.307c0.021,0.059,0.06,0.205,0.117,0.439
		c0.059,0.234,0.138,0.395,0.234,0.482c0.097,0.088,0.243,0.161,0.438,0.219c0.039,0.02,0.128,0.01,0.263-0.029
		c0.136-0.039,0.248-0.049,0.337-0.029c0.087,0.019,0.131,0.097,0.131,0.234c0.116-0.117,0.176-0.195,0.176-0.234
		c0.02,0.253,0.082,0.458,0.189,0.613c0.108,0.156,0.277,0.225,0.511,0.205l-0.058,0.643c-0.059,0.098-0.204,0.171-0.438,0.219
		c-0.233,0.049-0.38,0.093-0.438,0.131c-0.059,0.02-0.201,0.137-0.425,0.352c-0.225,0.214-0.316,0.341-0.277,0.38
		c-0.331-0.371-0.828-0.479-1.49-0.322c-0.74,0.117-1.248,0.234-1.521,0.351c-0.311,0.156-0.526,0.302-0.643,0.438
		c-0.021,0.02-0.054,0.087-0.103,0.204c-0.048,0.117-0.097,0.225-0.145,0.321c-0.051,0.097-0.093,0.146-0.131,0.146
		c0.116-0.019,0.248-0.112,0.394-0.278s0.239-0.258,0.277-0.277c0.507-0.331,0.925-0.448,1.259-0.348
		c0.429,0.117,0.496,0.272,0.204,0.468c-0.038,0.039-0.141,0.053-0.307,0.044c-0.165-0.01-0.277-0.005-0.336,0.014
		c0.177,0.039,0.321,0.093,0.439,0.161c0.116,0.068,0.146,0.161,0.087,0.278c0.312,0.175,0.37,0.371,0.176,0.584
		c-0.254,0.254-0.555,0.361-0.906,0.321c0.06,0,0.06,0.04,0,0.117l-0.497,0.322c-0.039,0.02-0.167,0.069-0.38,0.146
		c-0.216,0.079-0.362,0.166-0.438,0.263c-0.059,0.078-0.088,0.195-0.088,0.352s-0.011,0.273-0.029,0.351
		c-0.021,0.079-0.099,0.097-0.233,0.059c-0.059,0.117-0.239,0.21-0.542,0.278c-0.302,0.067-0.501,0.17-0.6,0.307
		c0.117,0.157,0.107,0.312-0.029,0.467c-0.233,0.195-0.438,0.175-0.613-0.059c-0.097,0.04-0.171,0.137-0.219,0.293
		c-0.05,0.156-0.123,0.263-0.22,0.322c0.137,0.214,0.117,0.371-0.059,0.468c0.02,0,0.063,0.02,0.132,0.058
		c0.067,0.039,0.141,0.088,0.219,0.146c0.079,0.058,0.126,0.087,0.146,0.087c-0.079,0.175-0.187,0.263-0.321,0.263
		c0.117,0.312-0.029,0.653-0.438,1.022c-0.079,0.079-0.201,0.157-0.365,0.234c-0.167,0.078-0.317,0.142-0.454,0.19
		c-0.137,0.049-0.214,0.083-0.234,0.102c-0.195,0.177-0.341,0.356-0.438,0.542c-0.097,0.185-0.111,0.365-0.043,0.541
		c0.067,0.175,0.248,0.292,0.541,0.351l0.028,0.234v0.525l0.029,0.234c0.02,0.137,0.035,0.259,0.044,0.367s0.009,0.243,0,0.409
		c-0.009,0.165-0.054,0.258-0.132,0.277c-0.077,0.021-0.185,0-0.321-0.058c-0.156-0.079-0.342-0.507-0.557-1.288
		c-0.038-0.194-0.155-0.427-0.35-0.701c-0.099,0.097-0.181,0.161-0.249,0.19c-0.067,0.029-0.117,0.035-0.145,0.014
		c-0.029-0.02-0.084-0.063-0.161-0.131c-0.079-0.068-0.146-0.123-0.205-0.161c-0.098-0.057-0.269-0.106-0.513-0.145
		c-0.242-0.04-0.394-0.089-0.452-0.146c-0.468,0.35-0.751,0.262-0.848-0.263c-0.04,0.097-0.035,0.229,0.015,0.394
		c0.048,0.166,0.073,0.258,0.073,0.278c-0.138,0.254-0.351,0.272-0.643,0.059c-0.117-0.117-0.386-0.132-0.805-0.044
		c-0.42,0.088-0.697,0.103-0.834,0.044c0.021,0,0.06,0.029,0.117,0.087c0.059,0.039,0.099,0.068,0.117,0.088
		c-0.021,0.078-0.05,0.135-0.088,0.175c-0.04,0.039-0.078,0.053-0.117,0.043c-0.039-0.009-0.083-0.009-0.131,0
		c-0.05,0.009-0.094,0.024-0.132,0.044c-0.079,0.058-0.176,0.16-0.292,0.306c-0.117,0.146-0.205,0.239-0.264,0.278
		c0.116,0.312,0.17,0.551,0.161,0.716c-0.011,0.166-0.04,0.411-0.089,0.732c-0.048,0.321-0.073,0.579-0.073,0.774
		c0,0.311,0.093,0.673,0.277,1.083c0.187,0.409,0.404,0.691,0.659,0.848c0.137,0.078,0.37,0.126,0.701,0.145
		c0.331,0.021,0.565,0,0.702-0.057c0.116-0.059,0.204-0.127,0.262-0.205c0.06-0.078,0.107-0.191,0.146-0.336
		c0.04-0.146,0.068-0.249,0.088-0.307c0.137-0.371,0.391-0.566,0.759-0.585c0.236-0.019,0.405,0.006,0.514,0.073
		c0.107,0.069,0.15,0.161,0.132,0.279c-0.021,0.116-0.059,0.238-0.117,0.366c-0.059,0.126-0.132,0.267-0.219,0.424
		c-0.088,0.156-0.143,0.273-0.161,0.352c-0.038,0.155-0.073,0.375-0.103,0.658c-0.028,0.283-0.053,0.453-0.073,0.511
		c0.039,0.02,0.185,0.029,0.438,0.029c0-0.038,0.015-0.103,0.045-0.19c0.028-0.088,0.043-0.141,0.043-0.161
		c0.097,0.157,0.254,0.243,0.468,0.263c0.215,0.02,0.37-0.059,0.469-0.234c0.038,0.058,0.155,0.206,0.351,0.439
		s0.301,0.428,0.321,0.584c0.021,0.078,0.059,0.205,0.117,0.38s0.078,0.297,0.059,0.367c-0.019,0.067-0.117,0.102-0.292,0.102
		c-0.078,0-0.127,0.029-0.146,0.088c-0.021,0.059-0.021,0.13,0,0.218c0.02,0.087,0.045,0.171,0.073,0.25
		c0.028,0.078,0.067,0.161,0.117,0.249c0.048,0.086,0.072,0.14,0.072,0.159c0.352,0.643,0.829,0.818,1.434,0.527
		c0,0.564-0.137,0.876-0.411,0.935C737.13,76.483,736.955,76.385,736.76,76.151z M737.196,82.756
		c-0.037-0.195-0.058-0.35-0.057-0.467c-0.02-0.157,0.05-0.365,0.205-0.628c0.155-0.264,0.233-0.464,0.233-0.599
		c-0.312-0.079-0.429-0.333-0.352-0.761c0.04-0.292,0.321-0.682,0.849-1.169c0.37-0.333,0.486-0.8,0.351-1.404
		c-0.059-0.253-0.107-0.625-0.146-1.11c-0.038-0.488-0.078-0.829-0.117-1.024c0,0.059,0.092,0.113,0.278,0.161
		c0.185,0.048,0.298,0.113,0.336,0.19c0.038-0.059,0.088-0.166,0.146-0.322c0.06-0.156,0.117-0.272,0.175-0.351
		c0.04-0.06,0.122-0.131,0.249-0.22c0.127-0.088,0.209-0.141,0.249-0.161c0.039-0.019,0.126-0.083,0.262-0.188
		c0.137-0.108,0.249-0.19,0.338-0.249c0.087-0.058,0.204-0.102,0.35-0.131c0.146-0.029,0.249,0.015,0.308,0.131
		c0.098,0.117,0.078,0.296-0.059,0.541c-0.137,0.244-0.137,0.414,0,0.512c0.02-0.059,0.038-0.186,0.059-0.381
		c0.02-0.195,0.078-0.341,0.175-0.439c0.117-0.116,0.229-0.185,0.337-0.203c0.107-0.02,0.204-0.005,0.292,0.043
		c0.087,0.049,0.189,0.116,0.307,0.205c0.117,0.088,0.224,0.141,0.321,0.16c0.293,0.098,0.643,0.312,1.054,0.644
		c-0.021-0.02-0.021-0.044,0-0.073c0.018-0.029,0.057-0.059,0.116-0.087c0.059-0.03,0.111-0.059,0.161-0.088
		c0.048-0.029,0.101-0.054,0.159-0.073l0.088-0.029c0.137,0,0.234-0.009,0.292-0.029c0.059-0.021,0.143,0,0.249,0.058
		c0.105,0.058,0.18,0.103,0.219,0.131c0.039,0.03,0.107,0.082,0.204,0.161c0.097,0.078,0.166,0.137,0.204,0.175
		c0.06,0.039,0.165,0.106,0.322,0.205c0.155,0.097,0.277,0.175,0.365,0.232c0.089,0.059,0.166,0.147,0.234,0.263
		c0.067,0.119,0.092,0.245,0.072,0.382c0.117,0.02,0.351,0.097,0.701,0.232c0.061,0.04,0.181,0.074,0.367,0.102
		c0.185,0.029,0.307,0.075,0.364,0.132C744.633,80.213,741.211,82.054,737.196,82.756z"/>
</g>
<g>
	<g>
		<path fill="#FF8A8A" d="M464.185,62.483c23.157,0,42.738,9.561,43.4,21.005c-0.662,11.444-20.243,21.007-43.4,21.007
			s-42.736-9.561-43.4-21.007C421.448,72.043,441.027,62.483,464.185,62.483z"/>
		<path fill="#FF8A8A" d="M507.648,146c0,11.707-19.902,21.598-43.464,21.598c-23.561,0-43.462-9.891-43.462-21.598v-10.328
			c7.441,8.934,23.897,15.011,43.462,15.011s36.022-6.078,43.464-15.011V146L507.648,146z"/>
		<path fill="#FF8A8A" d="M507.648,124.819c0,11.707-19.902,21.599-43.464,21.599c-23.561,0-43.462-9.892-43.462-21.599v-10.758
			c7.441,8.933,23.897,15.008,43.462,15.008s36.022-6.079,43.464-15.008V124.819L507.648,124.819z"/>
		<path fill="#FF8A8A" d="M507.648,103.204c0,11.708-19.902,21.598-43.464,21.598c-23.561,0-43.462-9.89-43.462-21.598v-9.452
			c7.441,8.935,23.897,15.007,43.462,15.007s36.022-6.075,43.464-15.007V103.204z"/>
	</g>
</g>
<g>
	<path fill="#F7E2E2" d="M50.311,183.623h3.975v1.546h-2.197v2.347h2.062v1.479h-2.062v3.771h-1.777V183.623z"/>
	<path fill="#F7E2E2" d="M57.403,183.623v9.143h-1.777v-9.143H57.403z"/>
	<path fill="#F7E2E2" d="M58.988,183.623h1.777v7.637h2.333v1.506h-4.11V183.623z"/>
	<path fill="#F7E2E2" d="M67.992,188.75h-2.075v2.469h2.347v1.546H64.14v-9.143h3.975v1.546h-2.197v2.103h2.075V188.75z"/>
</g>
<g>
	<path fill="#F7E2E2" d="M130.298,94.862c-0.394,0.163-1.221,0.326-1.886,0.326c-1.058,0-1.858-0.299-2.455-0.909
		c-0.787-0.773-1.208-2.116-1.18-3.689c0.041-3.324,1.926-4.707,3.893-4.707c0.692,0,1.193,0.136,1.479,0.271l-0.298,1.533
		c-0.271-0.122-0.61-0.204-1.044-0.204c-1.221,0-2.184,0.841-2.184,3.201c0,2.211,0.854,2.998,1.695,2.998
		c0.163,0,0.285-0.014,0.353-0.054V91.43h-0.828v-1.451h2.456V94.862z"/>
	<path fill="#F7E2E2" d="M133.401,85.963v9.143h-1.777v-9.143H133.401z"/>
	<path fill="#F7E2E2" d="M135.976,87.604h-1.614v-1.642h5.019v1.642h-1.627v7.501h-1.777V87.604z"/>
	<path fill="#F7E2E2" d="M143.921,93.017l-0.407,2.089h-1.723l1.98-9.143h2.13l1.777,9.143h-1.736l-0.38-2.089H143.921z
		 M145.4,91.633l-0.298-1.913c-0.095-0.556-0.217-1.479-0.298-2.076h-0.041c-0.095,0.61-0.23,1.546-0.325,2.076l-0.339,1.913H145.4z
		"/>
	<path fill="#F7E2E2" d="M148.679,86.099c0.448-0.108,1.099-0.176,1.804-0.176c1.153,0,1.954,0.271,2.537,0.814
		c0.787,0.706,1.194,1.913,1.194,3.689c0,1.845-0.475,3.161-1.275,3.866c-0.624,0.583-1.52,0.882-2.781,0.882
		c-0.569,0-1.125-0.054-1.479-0.095V86.099z M150.457,93.695c0.095,0.027,0.217,0.027,0.312,0.027c0.854,0,1.601-0.841,1.601-3.364
		c0-1.872-0.488-3.012-1.56-3.012c-0.122,0-0.244,0-0.353,0.041V93.695z"/>
	<path fill="#F7E2E2" d="M155.336,86.099c0.448-0.108,1.099-0.176,1.804-0.176c1.153,0,1.954,0.271,2.537,0.814
		c0.787,0.706,1.194,1.913,1.194,3.689c0,1.845-0.475,3.161-1.275,3.866c-0.624,0.583-1.52,0.882-2.781,0.882
		c-0.569,0-1.125-0.054-1.479-0.095V86.099z M157.113,93.695c0.095,0.027,0.217,0.027,0.312,0.027c0.854,0,1.601-0.841,1.601-3.364
		c0-1.872-0.488-3.012-1.56-3.012c-0.122,0-0.244,0-0.353,0.041V93.695z"/>
</g>
<g>
	<path fill="#F7E2E2" d="M436.868,183.623h1.776v7.637h2.334v1.506h-4.11V183.623z"/>
	<path fill="#F7E2E2" d="M444.096,192.874c-2.075,0-2.89-2.197-2.89-4.707c0-2.496,0.99-4.653,3.025-4.653
		c2.197,0,2.821,2.428,2.821,4.517c0,3.446-1.221,4.843-2.943,4.843H444.096z M444.163,191.328c0.76,0,1.045-1.356,1.045-3.215
		c0-1.614-0.244-3.052-1.058-3.052c-0.787,0-1.113,1.438-1.1,3.093c-0.026,1.818,0.312,3.174,1.1,3.174H444.163z"/>
	<path fill="#F7E2E2" d="M452.557,192.63c-0.258,0.122-0.76,0.217-1.37,0.217c-2.347,0-3.459-1.913-3.459-4.517
		c0-3.446,1.913-4.789,3.69-4.789c0.623,0,1.058,0.136,1.234,0.244l-0.299,1.492c-0.203-0.095-0.435-0.176-0.827-0.176
		c-1.004,0-1.913,0.868-1.913,3.133c0,2.184,0.827,3.039,1.913,3.039c0.298,0,0.638-0.068,0.854-0.136L452.557,192.63z"/>
	<path fill="#F7E2E2" d="M455.199,190.677l-0.407,2.089h-1.723l1.98-9.143h2.13l1.777,9.143h-1.736l-0.38-2.089H455.199z
		 M456.678,189.293l-0.299-1.913c-0.095-0.556-0.217-1.479-0.298-2.076h-0.041c-0.095,0.61-0.23,1.546-0.325,2.076l-0.339,1.913
		H456.678z"/>
	<path fill="#F7E2E2" d="M459.958,183.623h1.776v7.637h2.334v1.506h-4.11V183.623z"/>
	<path fill="#F7E2E2" d="M467.266,183.758c0.556-0.108,1.261-0.176,1.939-0.176c0.977,0,1.858,0.136,2.441,0.678
		c0.557,0.502,0.732,1.112,0.732,1.899c0,0.977-0.488,1.858-1.41,2.279v0.027c0.624,0.258,0.936,0.828,1.112,1.818
		c0.176,1.018,0.42,2.143,0.583,2.482h-1.858c-0.122-0.258-0.325-1.18-0.461-2.198c-0.163-1.125-0.448-1.451-1.031-1.451h-0.271
		v3.649h-1.776V183.758z M469.042,187.747h0.326c0.772,0,1.207-0.624,1.207-1.424c0-0.787-0.312-1.33-1.099-1.356
		c-0.163,0-0.339,0.014-0.435,0.054V187.747z"/>
	<path fill="#F7E2E2" d="M477.49,188.75h-2.076v2.469h2.347v1.546h-4.123v-9.143h3.975v1.546h-2.198v2.103h2.076V188.75z"/>
	<path fill="#F7E2E2" d="M478.979,183.758c0.502-0.108,1.18-0.176,1.858-0.176c1.058,0,1.898,0.163,2.482,0.706
		c0.542,0.488,0.786,1.234,0.786,2.007c0,0.99-0.298,1.696-0.772,2.198c-0.57,0.61-1.479,0.882-2.226,0.882
		c-0.122,0-0.23,0-0.353-0.014v3.405h-1.776V183.758z M480.756,187.923c0.096,0.014,0.19,0.014,0.299,0.014
		c0.896,0,1.289-0.638,1.289-1.492c0-0.8-0.326-1.424-1.153-1.424c-0.163,0-0.326,0.027-0.435,0.068V187.923z"/>
	<path fill="#F7E2E2" d="M487.617,192.874c-2.075,0-2.89-2.197-2.89-4.707c0-2.496,0.99-4.653,3.025-4.653
		c2.197,0,2.821,2.428,2.821,4.517c0,3.446-1.221,4.843-2.943,4.843H487.617z M487.685,191.328c0.76,0,1.045-1.356,1.045-3.215
		c0-1.614-0.244-3.052-1.058-3.052c-0.787,0-1.113,1.438-1.1,3.093c-0.026,1.818,0.312,3.174,1.1,3.174H487.685z"/>
</g>
<g>
	<path fill="#F7E2E2" d="M226.909,190.948c0.366,0.204,1.003,0.353,1.505,0.353c0.828,0,1.248-0.434,1.248-1.031
		c0-0.665-0.407-0.99-1.18-1.492c-1.248-0.759-1.723-1.723-1.723-2.55c0-1.465,0.977-2.686,2.876-2.686
		c0.61,0,1.18,0.176,1.438,0.326l-0.285,1.533c-0.258-0.163-0.651-0.312-1.153-0.312c-0.76,0-1.126,0.461-1.126,0.936
		c0,0.556,0.271,0.841,1.248,1.438c1.221,0.732,1.655,1.655,1.655,2.618c0,1.668-1.234,2.768-3.011,2.768
		c-0.733,0-1.438-0.19-1.75-0.366L226.909,190.948z"/>
	<path fill="#F7E2E2" d="M233.444,185.264h-1.614v-1.642h5.019v1.642h-1.627v7.501h-1.777V185.264z"/>
	<path fill="#F7E2E2" d="M238.772,190.677l-0.407,2.089h-1.723l1.98-9.143h2.13l1.777,9.143h-1.736l-0.38-2.089H238.772z
		 M240.251,189.293l-0.298-1.913c-0.095-0.556-0.217-1.479-0.298-2.076h-0.041c-0.095,0.61-0.23,1.546-0.325,2.076l-0.339,1.913
		H240.251z"/>
	<path fill="#F7E2E2" d="M248.387,192.521c-0.393,0.163-1.221,0.326-1.885,0.326c-1.058,0-1.858-0.298-2.456-0.909
		c-0.787-0.773-1.207-2.116-1.18-3.689c0.041-3.324,1.926-4.707,3.893-4.707c0.692,0,1.194,0.136,1.479,0.271l-0.298,1.533
		c-0.271-0.122-0.61-0.204-1.044-0.204c-1.221,0-2.184,0.841-2.184,3.201c0,2.211,0.854,2.998,1.695,2.998
		c0.163,0,0.285-0.014,0.353-0.054v-2.198h-0.828v-1.451h2.455V192.521z"/>
	<path fill="#F7E2E2" d="M251.49,183.623v9.143h-1.777v-9.143H251.49z"/>
	<path fill="#F7E2E2" d="M253.075,192.766v-9.143h1.628l1.411,3.595c0.285,0.692,0.719,1.872,0.977,2.659h0.027
		c-0.054-0.95-0.176-2.55-0.176-4.232v-2.021h1.56v9.143h-1.628l-1.397-3.486c-0.312-0.76-0.719-1.926-0.936-2.74h-0.027
		c0.054,0.923,0.122,2.333,0.122,4.165v2.062H253.075z"/>
	<path fill="#F7E2E2" d="M265.145,192.521c-0.394,0.163-1.221,0.326-1.886,0.326c-1.058,0-1.858-0.298-2.455-0.909
		c-0.787-0.773-1.208-2.116-1.18-3.689c0.041-3.324,1.926-4.707,3.893-4.707c0.692,0,1.193,0.136,1.479,0.271l-0.298,1.533
		c-0.271-0.122-0.61-0.204-1.044-0.204c-1.221,0-2.184,0.841-2.184,3.201c0,2.211,0.854,2.998,1.695,2.998
		c0.163,0,0.285-0.014,0.353-0.054v-2.198h-0.828v-1.451h2.456V192.521z"/>
</g>
<g>
	<path fill="#F7E2E2" d="M702.722,183.758c0.556-0.108,1.261-0.176,1.939-0.176c0.977,0,1.858,0.136,2.441,0.678
		c0.557,0.502,0.732,1.112,0.732,1.899c0,0.977-0.488,1.858-1.41,2.279v0.027c0.624,0.258,0.936,0.828,1.112,1.818
		c0.176,1.018,0.42,2.143,0.583,2.482h-1.858c-0.122-0.258-0.325-1.18-0.461-2.198c-0.163-1.125-0.448-1.451-1.031-1.451h-0.271
		v3.649h-1.776V183.758z M704.498,187.747h0.326c0.772,0,1.207-0.624,1.207-1.424c0-0.787-0.312-1.33-1.099-1.356
		c-0.163,0-0.339,0.014-0.435,0.054V187.747z"/>
	<path fill="#F7E2E2" d="M712.946,188.75h-2.076v2.469h2.347v1.546h-4.123v-9.143h3.975v1.546h-2.198v2.103h2.076V188.75z"/>
	<path fill="#F7E2E2" d="M720.024,189.564c-0.055-0.868-0.109-2.035-0.096-3.025h-0.026c-0.163,0.977-0.407,2.103-0.584,2.808
		l-0.8,3.269h-1.248l-0.76-3.215c-0.177-0.732-0.421-1.872-0.569-2.862h-0.027c-0.027,0.99-0.096,2.144-0.136,3.052l-0.163,3.174
		h-1.52l0.651-9.143h1.886l0.732,3.31c0.244,1.153,0.475,2.17,0.638,3.201h0.041c0.135-1.017,0.339-2.048,0.569-3.201l0.732-3.31
		h1.872l0.556,9.143h-1.587L720.024,189.564z"/>
	<path fill="#F7E2E2" d="M725.514,192.874c-2.075,0-2.89-2.197-2.89-4.707c0-2.496,0.99-4.653,3.025-4.653
		c2.197,0,2.821,2.428,2.821,4.517c0,3.446-1.221,4.843-2.943,4.843H725.514z M725.581,191.328c0.76,0,1.045-1.356,1.045-3.215
		c0-1.614-0.244-3.052-1.058-3.052c-0.787,0-1.113,1.438-1.1,3.093c-0.026,1.818,0.312,3.174,1.1,3.174H725.581z"/>
	<path fill="#F7E2E2" d="M730.489,185.264h-1.614v-1.642h5.019v1.642h-1.628v7.501h-1.776V185.264z"/>
	<path fill="#F7E2E2" d="M738.68,188.75h-2.076v2.469h2.347v1.546h-4.123v-9.143h3.975v1.546h-2.198v2.103h2.076V188.75z"/>
	<path fill="#F7E2E2" d="M742.324,183.758c0.556-0.108,1.261-0.176,1.939-0.176c0.977,0,1.858,0.136,2.441,0.678
		c0.557,0.502,0.732,1.112,0.732,1.899c0,0.977-0.488,1.858-1.41,2.279v0.027c0.624,0.258,0.936,0.828,1.112,1.818
		c0.176,1.018,0.42,2.143,0.583,2.482h-1.858c-0.122-0.258-0.325-1.18-0.461-2.198c-0.163-1.125-0.448-1.451-1.031-1.451h-0.271
		v3.649h-1.776V183.758z M744.101,187.747h0.326c0.772,0,1.207-0.624,1.207-1.424c0-0.787-0.312-1.33-1.099-1.356
		c-0.163,0-0.339,0.014-0.435,0.054V187.747z"/>
	<path fill="#F7E2E2" d="M752.549,188.75h-2.076v2.469h2.347v1.546h-4.123v-9.143h3.975v1.546h-2.198v2.103h2.076V188.75z"/>
	<path fill="#F7E2E2" d="M754.038,183.758c0.502-0.108,1.18-0.176,1.858-0.176c1.058,0,1.898,0.163,2.482,0.706
		c0.542,0.488,0.786,1.234,0.786,2.007c0,0.99-0.298,1.696-0.772,2.198c-0.57,0.61-1.479,0.882-2.226,0.882
		c-0.122,0-0.23,0-0.353-0.014v3.405h-1.776V183.758z M755.814,187.923c0.096,0.014,0.19,0.014,0.299,0.014
		c0.896,0,1.289-0.638,1.289-1.492c0-0.8-0.326-1.424-1.153-1.424c-0.163,0-0.326,0.027-0.435,0.068V187.923z"/>
	<path fill="#F7E2E2" d="M762.676,192.874c-2.075,0-2.89-2.197-2.89-4.707c0-2.496,0.99-4.653,3.025-4.653
		c2.197,0,2.821,2.428,2.821,4.517c0,3.446-1.221,4.843-2.943,4.843H762.676z M762.743,191.328c0.76,0,1.045-1.356,1.045-3.215
		c0-1.614-0.244-3.052-1.058-3.052c-0.787,0-1.113,1.438-1.1,3.093c-0.026,1.818,0.312,3.174,1.1,3.174H762.743z"/>
</g>
<g>
	<g>
		<line fill="none" stroke="#FFEEA4" stroke-width="6" stroke-miterlimit="10" x1="109" y1="115" x2="170" y2="115"/>
		<g>
			<polygon fill="#FFEEA4" points="186.548,115.443 162.67,125.2 168.336,115.443 162.67,105.688"/>
		</g>
	</g>
</g>
<g>
	<path fill="#F7E2E2" d="M337.397,94.862c-0.394,0.163-1.221,0.326-1.886,0.326c-1.059,0-1.858-0.299-2.455-0.909
		c-0.787-0.773-1.208-2.116-1.181-3.689c0.041-3.324,1.927-4.707,3.894-4.707c0.691,0,1.193,0.136,1.479,0.271l-0.299,1.533
		c-0.271-0.122-0.61-0.204-1.044-0.204c-1.221,0-2.185,0.841-2.185,3.201c0,2.211,0.855,2.998,1.696,2.998
		c0.162,0,0.284-0.014,0.353-0.054V91.43h-0.827v-1.451h2.455V94.862z"/>
	<path fill="#F7E2E2" d="M340.5,85.963v9.143h-1.776v-9.143H340.5z"/>
	<path fill="#F7E2E2" d="M343.076,87.604h-1.614v-1.642h5.019v1.642h-1.628v7.501h-1.776V87.604z"/>
	<path fill="#F7E2E2" d="M353.95,94.97c-0.258,0.122-0.76,0.217-1.37,0.217c-2.347,0-3.459-1.913-3.459-4.517
		c0-3.446,1.913-4.789,3.69-4.789c0.623,0,1.058,0.136,1.234,0.244l-0.299,1.492c-0.203-0.095-0.435-0.176-0.827-0.176
		c-1.004,0-1.913,0.868-1.913,3.133c0,2.184,0.827,3.039,1.913,3.039c0.298,0,0.637-0.068,0.854-0.136L353.95,94.97z"/>
	<path fill="#F7E2E2" d="M357.203,95.214c-2.075,0-2.89-2.197-2.89-4.707c0-2.496,0.99-4.653,3.025-4.653
		c2.197,0,2.821,2.428,2.821,4.517c0,3.446-1.221,4.843-2.943,4.843H357.203z M357.271,93.668c0.76,0,1.045-1.356,1.045-3.215
		c0-1.614-0.244-3.052-1.058-3.052c-0.787,0-1.113,1.438-1.1,3.093c-0.026,1.818,0.312,3.174,1.1,3.174H357.271z"/>
	<path fill="#F7E2E2" d="M366.872,91.905c-0.055-0.868-0.109-2.035-0.096-3.025h-0.026c-0.163,0.977-0.407,2.103-0.584,2.808
		l-0.8,3.269h-1.248l-0.76-3.215c-0.177-0.732-0.421-1.872-0.569-2.862h-0.027c-0.027,0.99-0.096,2.144-0.136,3.052l-0.163,3.174
		h-1.52l0.651-9.143h1.886l0.732,3.31c0.244,1.153,0.475,2.17,0.638,3.201h0.041c0.135-1.017,0.339-2.048,0.569-3.201l0.732-3.31
		h1.872l0.556,9.143h-1.587L366.872,91.905z"/>
	<path fill="#F7E2E2" d="M375.509,91.905c-0.055-0.868-0.109-2.035-0.096-3.025h-0.026c-0.163,0.977-0.407,2.103-0.584,2.808
		l-0.8,3.269h-1.248l-0.76-3.215c-0.177-0.732-0.421-1.872-0.569-2.862h-0.027c-0.027,0.99-0.096,2.144-0.136,3.052l-0.163,3.174
		h-1.52l0.651-9.143h1.886l0.732,3.31c0.244,1.153,0.475,2.17,0.638,3.201h0.041c0.135-1.017,0.339-2.048,0.569-3.201l0.732-3.31
		h1.872l0.556,9.143h-1.587L375.509,91.905z"/>
	<path fill="#F7E2E2" d="M380.333,85.963v9.143h-1.776v-9.143H380.333z"/>
	<path fill="#F7E2E2" d="M382.91,87.604h-1.614v-1.642h5.019v1.642h-1.628v7.501h-1.776V87.604z"/>
</g>
<g>
	<g>
		<line fill="none" stroke="#FFEEA4" stroke-width="6" stroke-miterlimit="10" x1="325" y1="115" x2="386" y2="115"/>
		<g>
			<polygon fill="#FFEEA4" points="402.724,115.443 378.846,125.2 384.512,115.443 378.846,105.688"/>
		</g>
	</g>
</g>
<g>
	<g>
		<path fill="#FF8A8A" d="M246.788,124.292c6.035,0,11.78-0.53,17.06-1.467v-6.266c0-4.451,2.29-8.371,5.75-10.661
			c-6.731,1.706-14.5,2.699-22.809,2.699c-25.473,0-46.115-9.183-46.115-20.526c0,4.734,0,7.898,0,15.694
			C200.677,115.105,221.314,124.292,246.788,124.292z"/>
		<ellipse fill="#FF8A8A" cx="246.788" cy="82.441" rx="46.117" ry="20.526"/>
		<path fill="#FF8A8A" d="M292.904,88.071c0,6.312-6.406,11.95-16.466,15.715c0.063,0,0.127-0.021,0.203-0.021h8.531
			c2.755,0,5.296,0.9,7.39,2.393c0.205-0.788,0.337-1.583,0.337-2.393C292.904,99.598,292.904,95.257,292.904,88.071z"/>
		<path fill="#FF8A8A" d="M242.523,145.518v-7.634c0-3.041,1.108-5.796,2.888-7.996c-24.83-0.325-44.734-9.358-44.734-20.494
			c0,4.735,0,7.898,0,15.694C200.677,135.79,219.054,144.559,242.523,145.518z"/>
		<path fill="#FF8A8A" d="M263.847,159.208h-8.53c-5.373,0-9.963-3.335-11.856-8.04c-23.912-0.754-42.784-9.608-42.784-20.45
			c0,4.734,0,7.899,0,15.695c0,11.34,20.643,20.526,46.116,20.526c6.034,0,11.779-0.529,17.059-1.468L263.847,159.208
			L263.847,159.208z"/>
	</g>
	<path fill="#FF8A8A" d="M306.496,133.619h-17.059v-17.061c0-2.349-1.916-4.265-4.265-4.265h-8.531
		c-2.349,0-4.264,1.916-4.264,4.265v17.061h-17.06c-2.349,0-4.265,1.914-4.265,4.265v8.53c0,2.349,1.916,4.265,4.265,4.265h17.06
		v17.059c0,2.349,1.916,4.265,4.264,4.265h8.531c2.349,0,4.265-1.916,4.265-4.265v-17.059h17.059c2.349,0,4.266-1.916,4.266-4.265
		v-8.53C310.762,135.533,308.845,133.619,306.496,133.619z"/>
</g>
<g>
	<path fill="#F7E2E2" d="M564.453,153.862c-0.394,0.163-1.221,0.326-1.886,0.326c-1.059,0-1.858-0.299-2.455-0.909
		c-0.787-0.773-1.208-2.116-1.181-3.689c0.041-3.324,1.927-4.707,3.894-4.707c0.691,0,1.193,0.136,1.479,0.271l-0.299,1.533
		c-0.271-0.122-0.61-0.204-1.044-0.204c-1.221,0-2.185,0.841-2.185,3.201c0,2.211,0.854,2.998,1.696,2.998
		c0.162,0,0.284-0.014,0.353-0.054v-2.198h-0.827v-1.451h2.455V153.862z"/>
	<path fill="#F7E2E2" d="M567.556,144.963v9.143h-1.776v-9.143H567.556z"/>
	<path fill="#F7E2E2" d="M570.132,146.604h-1.614v-1.642h5.019v1.642h-1.628v7.501h-1.776V146.604z"/>
	<path fill="#F7E2E2" d="M576.625,145.099c0.502-0.108,1.18-0.176,1.858-0.176c1.058,0,1.898,0.163,2.482,0.706
		c0.542,0.488,0.786,1.234,0.786,2.007c0,0.99-0.298,1.696-0.772,2.198c-0.57,0.61-1.479,0.882-2.226,0.882
		c-0.122,0-0.23,0-0.353-0.014v3.405h-1.776V145.099z M578.401,149.263c0.096,0.014,0.19,0.014,0.299,0.014
		c0.896,0,1.289-0.638,1.289-1.492c0-0.8-0.326-1.424-1.153-1.424c-0.163,0-0.326,0.027-0.435,0.068V149.263z"/>
	<path fill="#F7E2E2" d="M584.544,144.963v5.942c0,1.343,0.394,1.75,0.868,1.75c0.516,0,0.882-0.366,0.882-1.75v-5.942h1.776v5.63
		c0,2.347-0.895,3.622-2.645,3.622c-1.913,0-2.659-1.329-2.659-3.608v-5.643H584.544z"/>
	<path fill="#F7E2E2" d="M589.396,152.288c0.366,0.204,1.004,0.353,1.506,0.353c0.827,0,1.248-0.434,1.248-1.031
		c0-0.665-0.407-0.99-1.18-1.492c-1.248-0.759-1.724-1.723-1.724-2.55c0-1.465,0.978-2.686,2.876-2.686
		c0.61,0,1.181,0.176,1.438,0.325l-0.285,1.533c-0.258-0.163-0.651-0.312-1.153-0.312c-0.76,0-1.126,0.461-1.126,0.936
		c0,0.556,0.271,0.841,1.248,1.438c1.221,0.732,1.655,1.655,1.655,2.618c0,1.668-1.234,2.768-3.012,2.768
		c-0.732,0-1.438-0.19-1.75-0.366L589.396,152.288z"/>
	<path fill="#F7E2E2" d="M596.718,144.963v3.663h1.858v-3.663h1.777v9.143h-1.777v-3.825h-1.858v3.825h-1.776v-9.143H596.718z"/>
	<path fill="#F7E2E2" d="M606.521,154.214c-2.075,0-2.89-2.197-2.89-4.707c0-2.496,0.99-4.653,3.025-4.653
		c2.197,0,2.821,2.428,2.821,4.517c0,3.446-1.221,4.843-2.943,4.843H606.521z M606.589,152.668c0.76,0,1.045-1.356,1.045-3.215
		c0-1.614-0.244-3.052-1.058-3.052c-0.787,0-1.113,1.438-1.1,3.093c-0.026,1.818,0.312,3.174,1.1,3.174H606.589z"/>
	<path fill="#F7E2E2" d="M610.602,145.099c0.556-0.108,1.261-0.176,1.939-0.176c0.977,0,1.858,0.136,2.441,0.678
		c0.557,0.502,0.732,1.112,0.732,1.899c0,0.977-0.488,1.858-1.41,2.279v0.027c0.624,0.258,0.936,0.828,1.112,1.818
		c0.176,1.018,0.42,2.143,0.583,2.482h-1.858c-0.122-0.258-0.325-1.18-0.461-2.198c-0.163-1.125-0.448-1.451-1.031-1.451h-0.271
		v3.649h-1.776V145.099z M612.378,149.087h0.326c0.772,0,1.207-0.624,1.207-1.424c0-0.787-0.312-1.33-1.099-1.356
		c-0.163,0-0.339,0.014-0.435,0.054V149.087z"/>
	<path fill="#F7E2E2" d="M618.75,144.963v9.143h-1.776v-9.143H618.75z"/>
	<path fill="#F7E2E2" d="M625.408,153.862c-0.394,0.163-1.221,0.326-1.886,0.326c-1.059,0-1.858-0.299-2.455-0.909
		c-0.787-0.773-1.208-2.116-1.181-3.689c0.041-3.324,1.927-4.707,3.894-4.707c0.691,0,1.193,0.136,1.479,0.271l-0.299,1.533
		c-0.271-0.122-0.61-0.204-1.044-0.204c-1.221,0-2.185,0.841-2.185,3.201c0,2.211,0.854,2.998,1.696,2.998
		c0.162,0,0.284-0.014,0.353-0.054v-2.198h-0.827v-1.451h2.455V153.862z"/>
	<path fill="#F7E2E2" d="M628.511,144.963v9.143h-1.776v-9.143H628.511z"/>
	<path fill="#F7E2E2" d="M630.097,154.106v-9.143h1.628l1.41,3.595c0.285,0.692,0.719,1.872,0.977,2.659h0.027
		c-0.055-0.95-0.177-2.55-0.177-4.232v-2.021h1.561v9.143h-1.628l-1.397-3.486c-0.312-0.76-0.719-1.926-0.936-2.74h-0.027
		c0.055,0.923,0.122,2.333,0.122,4.165v2.062H630.097z"/>
</g>
<g>
	<path fill="#F7E2E2" d="M564.494,88.862c-0.394,0.163-1.221,0.326-1.886,0.326c-1.059,0-1.858-0.299-2.455-0.909
		c-0.787-0.773-1.208-2.116-1.181-3.689c0.041-3.324,1.927-4.707,3.894-4.707c0.691,0,1.193,0.136,1.479,0.271l-0.299,1.533
		c-0.271-0.122-0.61-0.204-1.044-0.204c-1.221,0-2.185,0.841-2.185,3.201c0,2.211,0.854,2.998,1.696,2.998
		c0.162,0,0.284-0.014,0.353-0.054V85.43h-0.827v-1.451h2.455V88.862z"/>
	<path fill="#F7E2E2" d="M567.597,79.963v9.143h-1.776v-9.143H567.597z"/>
	<path fill="#F7E2E2" d="M570.173,81.604h-1.614v-1.642h5.019v1.642h-1.628v7.501h-1.776V81.604z"/>
	<path fill="#F7E2E2" d="M581.047,88.97c-0.258,0.122-0.76,0.217-1.37,0.217c-2.347,0-3.459-1.913-3.459-4.517
		c0-3.446,1.913-4.789,3.69-4.789c0.623,0,1.058,0.136,1.234,0.244l-0.299,1.492c-0.203-0.095-0.435-0.176-0.827-0.176
		c-1.004,0-1.913,0.868-1.913,3.133c0,2.184,0.827,3.039,1.913,3.039c0.298,0,0.638-0.068,0.854-0.136L581.047,88.97z"/>
	<path fill="#F7E2E2" d="M582.021,79.963h1.776V87.6h2.334v1.506h-4.11V79.963z"/>
	<path fill="#F7E2E2" d="M589.249,89.214c-2.075,0-2.89-2.197-2.89-4.707c0-2.496,0.99-4.653,3.025-4.653
		c2.197,0,2.821,2.428,2.821,4.517c0,3.446-1.221,4.843-2.943,4.843H589.249z M589.316,87.668c0.76,0,1.045-1.356,1.045-3.215
		c0-1.614-0.244-3.052-1.058-3.052c-0.787,0-1.112,1.438-1.1,3.093c-0.026,1.818,0.312,3.174,1.1,3.174H589.316z"/>
	<path fill="#F7E2E2" d="M593.328,89.106v-9.143h1.628l1.41,3.595c0.285,0.692,0.719,1.872,0.977,2.659h0.027
		c-0.054-0.95-0.177-2.55-0.177-4.232v-2.021h1.561v9.143h-1.628l-1.397-3.486c-0.312-0.76-0.719-1.926-0.936-2.74h-0.027
		c0.055,0.923,0.122,2.333,0.122,4.165v2.062H593.328z"/>
	<path fill="#F7E2E2" d="M604.177,85.091h-2.076v2.469h2.347v1.546h-4.123v-9.143h3.975v1.547h-2.198v2.103h2.076V85.091z"/>
	<path fill="#F7E2E2" d="M606.736,89.648l3.188-9.794h1.152l-3.188,9.794H606.736z"/>
	<path fill="#F7E2E2" d="M613.773,80.099c0.502-0.108,1.18-0.176,1.858-0.176c1.058,0,1.898,0.163,2.482,0.706
		c0.542,0.488,0.786,1.234,0.786,2.007c0,0.99-0.298,1.696-0.772,2.198c-0.57,0.61-1.479,0.882-2.226,0.882
		c-0.122,0-0.23,0-0.353-0.014v3.405h-1.776V80.099z M615.55,84.263c0.096,0.014,0.19,0.014,0.299,0.014
		c0.896,0,1.289-0.638,1.289-1.492c0-0.8-0.326-1.424-1.153-1.424c-0.163,0-0.326,0.027-0.435,0.068V84.263z"/>
	<path fill="#F7E2E2" d="M621.692,79.963v5.942c0,1.343,0.394,1.75,0.868,1.75c0.516,0,0.882-0.366,0.882-1.75v-5.942h1.776v5.63
		c0,2.347-0.895,3.622-2.645,3.622c-1.913,0-2.659-1.329-2.659-3.608v-5.643H621.692z"/>
	<path fill="#F7E2E2" d="M626.749,79.963h1.776V87.6h2.334v1.506h-4.11V79.963z"/>
	<path fill="#F7E2E2" d="M631.9,79.963h1.776V87.6h2.334v1.506h-4.11V79.963z"/>
</g>
<g>
	<g>
		<line fill="none" stroke="#FFEEA4" stroke-width="6" stroke-miterlimit="10" x1="539" y1="131" x2="545" y2="131"/>

			<line fill="none" stroke="#FFEEA4" stroke-width="6" stroke-miterlimit="10" stroke-dasharray="12,12" x1="557" y1="131" x2="646" y2="131"/>
		<line fill="none" stroke="#FFEEA4" stroke-width="6" stroke-miterlimit="10" x1="652" y1="131" x2="658" y2="131"/>
		<g>
			<polygon fill="#FFEEA4" points="674.976,131.443 651.098,141.2 656.764,131.443 651.098,121.688"/>
		</g>
	</g>
</g>
<g>
	<g>
		<line fill="none" stroke="#FFEEA4" stroke-width="6" stroke-miterlimit="10" x1="656" y1="102" x2="650" y2="102"/>

			<line fill="none" stroke="#FFEEA4" stroke-width="6" stroke-miterlimit="10" stroke-dasharray="12,12" x1="638" y1="102" x2="550" y2="102"/>
		<line fill="none" stroke="#FFEEA4" stroke-width="6" stroke-miterlimit="10" x1="544" y1="102" x2="538" y2="102"/>
		<g>
			<polygon fill="#FFEEA4" points="520.828,102.443 544.706,92.687 539.04,102.443 544.706,112.198"/>
		</g>
	</g>
</g>
</svg>